<?xml version="1.0" encoding="UTF-8"?>
<svg xmlns="http://www.w3.org/2000/svg" viewBox="0 0 1500 1000" width="1500" height="1000">
<defs>
<linearGradient id="qgBG" x1="0" y1="0" x2="0" y2="1">
  <stop offset="0" stop-color="#f0fdfa"/>
  <stop offset="1" stop-color="#ccfbf1"/>
</linearGradient>
</defs>
<rect width="1500" height="1000" fill="url(#qgBG)"/>
<rect x="-5" y="35" width="10" height="10" fill="#0f766e" opacity="0.3" transform="rotate(45 0 40)"/><rect x="-5" y="955" width="10" height="10" fill="#0f766e" opacity="0.3" transform="rotate(45 0 960)"/><rect x="55" y="35" width="10" height="10" fill="#0f766e" opacity="0.3" transform="rotate(45 60 40)"/><rect x="55" y="955" width="10" height="10" fill="#0f766e" opacity="0.3" transform="rotate(45 60 960)"/><rect x="115" y="35" width="10" height="10" fill="#0f766e" opacity="0.3" transform="rotate(45 120 40)"/><rect x="115" y="955" width="10" height="10" fill="#0f766e" opacity="0.3" transform="rotate(45 120 960)"/><rect x="175" y="35" width="10" height="10" fill="#0f766e" opacity="0.3" transform="rotate(45 180 40)"/><rect x="175" y="955" width="10" height="10" fill="#0f766e" opacity="0.3" transform="rotate(45 180 960)"/><rect x="235" y="35" width="10" height="10" fill="#0f766e" opacity="0.3" transform="rotate(45 240 40)"/><rect x="235" y="955" width="10" height="10" fill="#0f766e" opacity="0.3" transform="rotate(45 240 960)"/><rect x="295" y="35" width="10" height="10" fill="#0f766e" opacity="0.3" transform="rotate(45 300 40)"/><rect x="295" y="955" width="10" height="10" fill="#0f766e" opacity="0.3" transform="rotate(45 300 960)"/><rect x="355" y="35" width="10" height="10" fill="#0f766e" opacity="0.3" transform="rotate(45 360 40)"/><rect x="355" y="955" width="10" height="10" fill="#0f766e" opacity="0.3" transform="rotate(45 360 960)"/><rect x="415" y="35" width="10" height="10" fill="#0f766e" opacity="0.3" transform="rotate(45 420 40)"/><rect x="415" y="955" width="10" height="10" fill="#0f766e" opacity="0.3" transform="rotate(45 420 960)"/><rect x="475" y="35" width="10" height="10" fill="#0f766e" opacity="0.3" transform="rotate(45 480 40)"/><rect x="475" y="955" width="10" height="10" fill="#0f766e" opacity="0.3" transform="rotate(45 480 960)"/><rect x="535" y="35" width="10" height="10" fill="#0f766e" opacity="0.3" transform="rotate(45 540 40)"/><rect x="535" y="955" width="10" height="10" fill="#0f766e" opacity="0.3" transform="rotate(45 540 960)"/><rect x="595" y="35" width="10" height="10" fill="#0f766e" opacity="0.3" transform="rotate(45 600 40)"/><rect x="595" y="955" width="10" height="10" fill="#0f766e" opacity="0.3" transform="rotate(45 600 960)"/><rect x="655" y="35" width="10" height="10" fill="#0f766e" opacity="0.3" transform="rotate(45 660 40)"/><rect x="655" y="955" width="10" height="10" fill="#0f766e" opacity="0.3" transform="rotate(45 660 960)"/><rect x="715" y="35" width="10" height="10" fill="#0f766e" opacity="0.3" transform="rotate(45 720 40)"/><rect x="715" y="955" width="10" height="10" fill="#0f766e" opacity="0.3" transform="rotate(45 720 960)"/><rect x="775" y="35" width="10" height="10" fill="#0f766e" opacity="0.3" transform="rotate(45 780 40)"/><rect x="775" y="955" width="10" height="10" fill="#0f766e" opacity="0.3" transform="rotate(45 780 960)"/><rect x="835" y="35" width="10" height="10" fill="#0f766e" opacity="0.3" transform="rotate(45 840 40)"/><rect x="835" y="955" width="10" height="10" fill="#0f766e" opacity="0.3" transform="rotate(45 840 960)"/><rect x="895" y="35" width="10" height="10" fill="#0f766e" opacity="0.3" transform="rotate(45 900 40)"/><rect x="895" y="955" width="10" height="10" fill="#0f766e" opacity="0.3" transform="rotate(45 900 960)"/><rect x="955" y="35" width="10" height="10" fill="#0f766e" opacity="0.3" transform="rotate(45 960 40)"/><rect x="955" y="955" width="10" height="10" fill="#0f766e" opacity="0.3" transform="rotate(45 960 960)"/><rect x="1015" y="35" width="10" height="10" fill="#0f766e" opacity="0.3" transform="rotate(45 1020 40)"/><rect x="1015" y="955" width="10" height="10" fill="#0f766e" opacity="0.3" transform="rotate(45 1020 960)"/><rect x="1075" y="35" width="10" height="10" fill="#0f766e" opacity="0.3" transform="rotate(45 1080 40)"/><rect x="1075" y="955" width="10" height="10" fill="#0f766e" opacity="0.3" transform="rotate(45 1080 960)"/><rect x="1135" y="35" width="10" height="10" fill="#0f766e" opacity="0.3" transform="rotate(45 1140 40)"/><rect x="1135" y="955" width="10" height="10" fill="#0f766e" opacity="0.3" transform="rotate(45 1140 960)"/><rect x="1195" y="35" width="10" height="10" fill="#0f766e" opacity="0.3" transform="rotate(45 1200 40)"/><rect x="1195" y="955" width="10" height="10" fill="#0f766e" opacity="0.3" transform="rotate(45 1200 960)"/><rect x="1255" y="35" width="10" height="10" fill="#0f766e" opacity="0.3" transform="rotate(45 1260 40)"/><rect x="1255" y="955" width="10" height="10" fill="#0f766e" opacity="0.3" transform="rotate(45 1260 960)"/><rect x="1315" y="35" width="10" height="10" fill="#0f766e" opacity="0.3" transform="rotate(45 1320 40)"/><rect x="1315" y="955" width="10" height="10" fill="#0f766e" opacity="0.3" transform="rotate(45 1320 960)"/><rect x="1375" y="35" width="10" height="10" fill="#0f766e" opacity="0.3" transform="rotate(45 1380 40)"/><rect x="1375" y="955" width="10" height="10" fill="#0f766e" opacity="0.3" transform="rotate(45 1380 960)"/><rect x="1435" y="35" width="10" height="10" fill="#0f766e" opacity="0.3" transform="rotate(45 1440 40)"/><rect x="1435" y="955" width="10" height="10" fill="#0f766e" opacity="0.3" transform="rotate(45 1440 960)"/><rect x="1495" y="35" width="10" height="10" fill="#0f766e" opacity="0.3" transform="rotate(45 1500 40)"/><rect x="1495" y="955" width="10" height="10" fill="#0f766e" opacity="0.3" transform="rotate(45 1500 960)"/><text x="750.0" y="110" font-family="Georgia,serif" font-size="46" font-weight="800" fill="#134e4a" text-anchor="middle">Cara Menggunakan Workspace</text><text x="750.0" y="150" font-family="Georgia,serif" font-size="20" fill="#0f766e" text-anchor="middle" opacity="0.75">Delapan langkah sederhana</text><rect x="60" y="210" width="340" height="320" fill="#ffffff" stroke="#14b8a6" stroke-width="3" rx="14" opacity="0.95"/><circle cx="100" cy="250" r="26" fill="#0f766e"/><text x="100" y="258" font-family="Georgia,serif" font-size="22" font-weight="700" fill="#ffffff" text-anchor="middle">1</text><g transform="translate(185.0,295.0)">
        <path d="M45.0 9.0 L85.5 45.0 L76.5 45.0 L76.5 81.0 L49.50000000000001 81.0 L49.50000000000001 54.0 L40.5 54.0 L40.5 81.0 L13.5 81.0 L13.5 45.0 L4.5 45.0 Z"
              fill="#0f766e"/></g><text x="230.0" y="425" font-family="Georgia,serif" font-size="19" font-weight="700" fill="#134e4a" text-anchor="middle">Mulai dari Dashboard</text><text x="230.0" y="460" font-family="Georgia,serif" font-size="15" fill="#0f766e" text-anchor="middle" opacity="0.9">Titik awal setiap kali masuk</text><line x1="80" y1="295" x2="380" y2="295" stroke="#a7f3d0" stroke-width="2"/><rect x="415" y="210" width="340" height="320" fill="#ffffff" stroke="#14b8a6" stroke-width="3" rx="14" opacity="0.95"/><circle cx="455" cy="250" r="26" fill="#0f766e"/><text x="455" y="258" font-family="Georgia,serif" font-size="22" font-weight="700" fill="#ffffff" text-anchor="middle">2</text><g transform="translate(540.0,295.0)">
        <path d="M13.5 67.5 Q4.5 45.0 13.5 31.499999999999996 L31.499999999999996 13.5 Q45.0 4.5 58.5 13.5 L76.5 31.499999999999996 Q85.5 45.0 76.5 67.5 Q45.0 85.5 13.5 67.5 Z"
              fill="#0f766e"/>
        <line x1="31.499999999999996" y1="36.0" x2="31.499999999999996" y2="58.5" stroke="#ffffff" stroke-width="3"/>
        <line x1="45.0" y1="31.499999999999996" x2="45.0" y2="62.99999999999999" stroke="#ffffff" stroke-width="3"/>
        <line x1="58.5" y1="36.0" x2="58.5" y2="58.5" stroke="#ffffff" stroke-width="3"/>
        </g><text x="585.0" y="425" font-family="Georgia,serif" font-size="19" font-weight="700" fill="#134e4a" text-anchor="middle">Baca Selamat Datang</text><text x="585.0" y="460" font-family="Georgia,serif" font-size="15" fill="#0f766e" text-anchor="middle" opacity="0.9">Pahami cara pakai workspace</text><line x1="435" y1="295" x2="735" y2="295" stroke="#a7f3d0" stroke-width="2"/><rect x="770" y="210" width="340" height="320" fill="#ffffff" stroke="#14b8a6" stroke-width="3" rx="14" opacity="0.95"/><circle cx="810" cy="250" r="26" fill="#0f766e"/><text x="810" y="258" font-family="Georgia,serif" font-size="22" font-weight="700" fill="#ffffff" text-anchor="middle">3</text><g transform="translate(895.0,295.0)">
        <path d="M9.0 18.0 L36.0 9.0 L62.99999999999999 22.5 L81.0 13.5 L81.0 72.0 L62.99999999999999 81.0 L36.0 67.5 L9.0 76.5 Z"
              fill="#0f766e"/>
        <line x1="36.0" y1="9.0" x2="36.0" y2="67.5" stroke="#ffffff" stroke-width="3" opacity="0.7"/>
        <line x1="62.99999999999999" y1="22.5" x2="62.99999999999999" y2="81.0" stroke="#ffffff" stroke-width="3" opacity="0.7"/>
        </g><text x="940.0" y="425" font-family="Georgia,serif" font-size="19" font-weight="700" fill="#134e4a" text-anchor="middle">Ikuti Roadmap</text><text x="940.0" y="460" font-family="Georgia,serif" font-size="15" fill="#0f766e" text-anchor="middle" opacity="0.9">Lihat urutan pembelajaran</text><line x1="790" y1="295" x2="1090" y2="295" stroke="#a7f3d0" stroke-width="2"/><rect x="1125" y="210" width="340" height="320" fill="#ffffff" stroke="#14b8a6" stroke-width="3" rx="14" opacity="0.95"/><circle cx="1165" cy="250" r="26" fill="#0f766e"/><text x="1165" y="258" font-family="Georgia,serif" font-size="22" font-weight="700" fill="#ffffff" text-anchor="middle">4</text><g transform="translate(1250.0,295.0)">
        <path d="M9.0 18.0 L45.0 13.5 L81.0 18.0 L81.0 76.5 L45.0 72.0 L9.0 76.5 Z"
              fill="#0f766e"/>
        <line x1="45.0" y1="13.5" x2="45.0" y2="72.0" stroke="#ffffff" stroke-width="3" opacity="0.7"/>
        </g><text x="1295.0" y="425" font-family="Georgia,serif" font-size="19" font-weight="700" fill="#134e4a" text-anchor="middle">Pelajari Modul Berurutan</text><text x="1295.0" y="460" font-family="Georgia,serif" font-size="15" fill="#0f766e" text-anchor="middle" opacity="0.9">Dari Modul 1 hingga Modul 4</text><line x1="1145" y1="295" x2="1445" y2="295" stroke="#a7f3d0" stroke-width="2"/><rect x="60" y="560" width="340" height="320" fill="#ffffff" stroke="#14b8a6" stroke-width="3" rx="14" opacity="0.95"/><circle cx="100" cy="600" r="26" fill="#0f766e"/><text x="100" y="608" font-family="Georgia,serif" font-size="22" font-weight="700" fill="#ffffff" text-anchor="middle">5</text><g transform="translate(185.0,645.0)">
        <circle cx="45.0" cy="45.0" r="36.0" fill="#0f766e"/>
        <path d="M27.0 45.0 L40.5 58.5 L62.99999999999999 36.0" fill="none" stroke="#ffffff" stroke-width="5" stroke-linecap="round" stroke-linejoin="round"/>
        </g><text x="230.0" y="775" font-family="Georgia,serif" font-size="19" font-weight="700" fill="#134e4a" text-anchor="middle">Latihan dan Checklist</text><text x="230.0" y="810" font-family="Georgia,serif" font-size="15" fill="#0f766e" text-anchor="middle" opacity="0.9">Tandai progres Anda</text><line x1="80" y1="645" x2="380" y2="645" stroke="#a7f3d0" stroke-width="2"/><rect x="415" y="560" width="340" height="320" fill="#ffffff" stroke="#14b8a6" stroke-width="3" rx="14" opacity="0.95"/><circle cx="455" cy="600" r="26" fill="#0f766e"/><text x="455" y="608" font-family="Georgia,serif" font-size="22" font-weight="700" fill="#ffffff" text-anchor="middle">6</text><g transform="translate(540.0,645.0)">
        <rect x="9.0" y="22.5" width="58.5" height="45.0" rx="6" fill="#0f766e"/>
        <polygon points="67.5,31.499999999999996 67.5,58.5 85.5,45.0" fill="#0f766e"/>
        <polygon points="27.0,31.499999999999996 27.0,58.5 45.0,45.0" fill="#ffffff"/>
        </g><text x="585.0" y="775" font-family="Georgia,serif" font-size="19" font-weight="700" fill="#134e4a" text-anchor="middle">Tonton Rekaman Bila Perlu</text><text x="585.0" y="810" font-family="Georgia,serif" font-size="15" fill="#0f766e" text-anchor="middle" opacity="0.9">Materi bisa diulang kapan saja</text><line x1="435" y1="645" x2="735" y2="645" stroke="#a7f3d0" stroke-width="2"/><rect x="770" y="560" width="340" height="320" fill="#ffffff" stroke="#14b8a6" stroke-width="3" rx="14" opacity="0.95"/><circle cx="810" cy="600" r="26" fill="#0f766e"/><text x="810" y="608" font-family="Georgia,serif" font-size="22" font-weight="700" fill="#ffffff" text-anchor="middle">7</text><g transform="translate(895.0,645.0)">
        <path d="M13.5 76.5 L49.50000000000001 13.5 L76.5 40.5 L40.5 81.0 L13.5 76.5 Z"
              fill="#0f766e"/>
        <path d="M67.5 22.5 L76.5 13.5 L85.5 22.5 L76.5 31.499999999999996 Z" fill="#fbbf24"/>
        <path d="M13.5 76.5 L27.0 67.5 L31.499999999999996 81.0 Z" fill="#78350f"/>
        </g><text x="940.0" y="775" font-family="Georgia,serif" font-size="19" font-weight="700" fill="#134e4a" text-anchor="middle">Kerjakan Kuis</text><text x="940.0" y="810" font-family="Georgia,serif" font-size="15" fill="#0f766e" text-anchor="middle" opacity="0.9">Uji pemahaman setiap modul</text><line x1="790" y1="645" x2="1090" y2="645" stroke="#a7f3d0" stroke-width="2"/><rect x="1125" y="560" width="340" height="320" fill="#ffffff" stroke="#14b8a6" stroke-width="3" rx="14" opacity="0.95"/><circle cx="1165" cy="600" r="26" fill="#0f766e"/><text x="1165" y="608" font-family="Georgia,serif" font-size="22" font-weight="700" fill="#ffffff" text-anchor="middle">8</text><g transform="translate(1250.0,645.0)">
        <path d="M9.0 13.5 L81.0 13.5 Q85.5 13.5 85.5 22.5 L85.5 58.5 Q85.5 67.5 76.5 67.5 L49.50000000000001 67.5 L36.0 81.0 L36.0 67.5 L13.5 67.5 Q4.5 67.5 4.5 58.5 L4.5 22.5 Q4.5 13.5 13.5 13.5 Z"
              fill="#0f766e"/>
        <circle cx="27.0" cy="40.5" r="5.3999999999999995" fill="#ffffff"/>
        <circle cx="45.0" cy="40.5" r="5.3999999999999995" fill="#ffffff"/>
        <circle cx="62.99999999999999" cy="40.5" r="5.3999999999999995" fill="#ffffff"/>
        </g><text x="1295.0" y="775" font-family="Georgia,serif" font-size="19" font-weight="700" fill="#134e4a" text-anchor="middle">Hubungi Admin Bila Kendala</text><text x="1295.0" y="810" font-family="Georgia,serif" font-size="15" fill="#0f766e" text-anchor="middle" opacity="0.9">Tim admin siap membantu</text><line x1="1145" y1="645" x2="1445" y2="645" stroke="#a7f3d0" stroke-width="2"/><text x="750.0" y="960" font-family="Georgia,serif" font-size="16" fill="#0f766e" text-anchor="middle" opacity="0.7">Draft prototype — Cara pakai singkat</text>
</svg>