<?xml version="1.0" encoding="UTF-8"?>
<svg xmlns="http://www.w3.org/2000/svg" viewBox="0 0 1500 900" width="1500" height="900">
  <defs>
    <linearGradient id="bgG" x1="0" y1="0" x2="0" y2="1">
      <stop offset="0" stop-color="#f0fdf4"/>
      <stop offset="1" stop-color="#dcfce7"/>
    </linearGradient>
  </defs>
  <rect width="1500" height="900" fill="url(#bgG)"/>
<polygon points="15.0,40.0 7.6,43.2 10.6,50.6 3.2,47.6 0.0,55.0 -3.2,47.6 -10.6,50.6 -7.6,43.2 -15.0,40.0 -7.6,36.8 -10.6,29.4 -3.2,32.4 -0.0,25.0 3.2,32.4 10.6,29.4 7.6,36.8" fill="#065f46" opacity="0.2"/><polygon points="15.0,860.0 7.6,863.2 10.6,870.6 3.2,867.6 0.0,875.0 -3.2,867.6 -10.6,870.6 -7.6,863.2 -15.0,860.0 -7.6,856.8 -10.6,849.4 -3.2,852.4 -0.0,845.0 3.2,852.4 10.6,849.4 7.6,856.8" fill="#065f46" opacity="0.2"/><polygon points="95.0,40.0 87.6,43.2 90.6,50.6 83.2,47.6 80.0,55.0 76.8,47.6 69.4,50.6 72.4,43.2 65.0,40.0 72.4,36.8 69.4,29.4 76.8,32.4 80.0,25.0 83.2,32.4 90.6,29.4 87.6,36.8" fill="#065f46" opacity="0.2"/><polygon points="95.0,860.0 87.6,863.2 90.6,870.6 83.2,867.6 80.0,875.0 76.8,867.6 69.4,870.6 72.4,863.2 65.0,860.0 72.4,856.8 69.4,849.4 76.8,852.4 80.0,845.0 83.2,852.4 90.6,849.4 87.6,856.8" fill="#065f46" opacity="0.2"/><polygon points="175.0,40.0 167.6,43.2 170.6,50.6 163.2,47.6 160.0,55.0 156.8,47.6 149.4,50.6 152.4,43.2 145.0,40.0 152.4,36.8 149.4,29.4 156.8,32.4 160.0,25.0 163.2,32.4 170.6,29.4 167.6,36.8" fill="#065f46" opacity="0.2"/><polygon points="175.0,860.0 167.6,863.2 170.6,870.6 163.2,867.6 160.0,875.0 156.8,867.6 149.4,870.6 152.4,863.2 145.0,860.0 152.4,856.8 149.4,849.4 156.8,852.4 160.0,845.0 163.2,852.4 170.6,849.4 167.6,856.8" fill="#065f46" opacity="0.2"/><polygon points="255.0,40.0 247.6,43.2 250.6,50.6 243.2,47.6 240.0,55.0 236.8,47.6 229.4,50.6 232.4,43.2 225.0,40.0 232.4,36.8 229.4,29.4 236.8,32.4 240.0,25.0 243.2,32.4 250.6,29.4 247.6,36.8" fill="#065f46" opacity="0.2"/><polygon points="255.0,860.0 247.6,863.2 250.6,870.6 243.2,867.6 240.0,875.0 236.8,867.6 229.4,870.6 232.4,863.2 225.0,860.0 232.4,856.8 229.4,849.4 236.8,852.4 240.0,845.0 243.2,852.4 250.6,849.4 247.6,856.8" fill="#065f46" opacity="0.2"/><polygon points="335.0,40.0 327.6,43.2 330.6,50.6 323.2,47.6 320.0,55.0 316.8,47.6 309.4,50.6 312.4,43.2 305.0,40.0 312.4,36.8 309.4,29.4 316.8,32.4 320.0,25.0 323.2,32.4 330.6,29.4 327.6,36.8" fill="#065f46" opacity="0.2"/><polygon points="335.0,860.0 327.6,863.2 330.6,870.6 323.2,867.6 320.0,875.0 316.8,867.6 309.4,870.6 312.4,863.2 305.0,860.0 312.4,856.8 309.4,849.4 316.8,852.4 320.0,845.0 323.2,852.4 330.6,849.4 327.6,856.8" fill="#065f46" opacity="0.2"/><polygon points="415.0,40.0 407.6,43.2 410.6,50.6 403.2,47.6 400.0,55.0 396.8,47.6 389.4,50.6 392.4,43.2 385.0,40.0 392.4,36.8 389.4,29.4 396.8,32.4 400.0,25.0 403.2,32.4 410.6,29.4 407.6,36.8" fill="#065f46" opacity="0.2"/><polygon points="415.0,860.0 407.6,863.2 410.6,870.6 403.2,867.6 400.0,875.0 396.8,867.6 389.4,870.6 392.4,863.2 385.0,860.0 392.4,856.8 389.4,849.4 396.8,852.4 400.0,845.0 403.2,852.4 410.6,849.4 407.6,856.8" fill="#065f46" opacity="0.2"/><polygon points="495.0,40.0 487.6,43.2 490.6,50.6 483.2,47.6 480.0,55.0 476.8,47.6 469.4,50.6 472.4,43.2 465.0,40.0 472.4,36.8 469.4,29.4 476.8,32.4 480.0,25.0 483.2,32.4 490.6,29.4 487.6,36.8" fill="#065f46" opacity="0.2"/><polygon points="495.0,860.0 487.6,863.2 490.6,870.6 483.2,867.6 480.0,875.0 476.8,867.6 469.4,870.6 472.4,863.2 465.0,860.0 472.4,856.8 469.4,849.4 476.8,852.4 480.0,845.0 483.2,852.4 490.6,849.4 487.6,856.8" fill="#065f46" opacity="0.2"/><polygon points="575.0,40.0 567.6,43.2 570.6,50.6 563.2,47.6 560.0,55.0 556.8,47.6 549.4,50.6 552.4,43.2 545.0,40.0 552.4,36.8 549.4,29.4 556.8,32.4 560.0,25.0 563.2,32.4 570.6,29.4 567.6,36.8" fill="#065f46" opacity="0.2"/><polygon points="575.0,860.0 567.6,863.2 570.6,870.6 563.2,867.6 560.0,875.0 556.8,867.6 549.4,870.6 552.4,863.2 545.0,860.0 552.4,856.8 549.4,849.4 556.8,852.4 560.0,845.0 563.2,852.4 570.6,849.4 567.6,856.8" fill="#065f46" opacity="0.2"/><polygon points="655.0,40.0 647.6,43.2 650.6,50.6 643.2,47.6 640.0,55.0 636.8,47.6 629.4,50.6 632.4,43.2 625.0,40.0 632.4,36.8 629.4,29.4 636.8,32.4 640.0,25.0 643.2,32.4 650.6,29.4 647.6,36.8" fill="#065f46" opacity="0.2"/><polygon points="655.0,860.0 647.6,863.2 650.6,870.6 643.2,867.6 640.0,875.0 636.8,867.6 629.4,870.6 632.4,863.2 625.0,860.0 632.4,856.8 629.4,849.4 636.8,852.4 640.0,845.0 643.2,852.4 650.6,849.4 647.6,856.8" fill="#065f46" opacity="0.2"/><polygon points="735.0,40.0 727.6,43.2 730.6,50.6 723.2,47.6 720.0,55.0 716.8,47.6 709.4,50.6 712.4,43.2 705.0,40.0 712.4,36.8 709.4,29.4 716.8,32.4 720.0,25.0 723.2,32.4 730.6,29.4 727.6,36.8" fill="#065f46" opacity="0.2"/><polygon points="735.0,860.0 727.6,863.2 730.6,870.6 723.2,867.6 720.0,875.0 716.8,867.6 709.4,870.6 712.4,863.2 705.0,860.0 712.4,856.8 709.4,849.4 716.8,852.4 720.0,845.0 723.2,852.4 730.6,849.4 727.6,856.8" fill="#065f46" opacity="0.2"/><polygon points="815.0,40.0 807.6,43.2 810.6,50.6 803.2,47.6 800.0,55.0 796.8,47.6 789.4,50.6 792.4,43.2 785.0,40.0 792.4,36.8 789.4,29.4 796.8,32.4 800.0,25.0 803.2,32.4 810.6,29.4 807.6,36.8" fill="#065f46" opacity="0.2"/><polygon points="815.0,860.0 807.6,863.2 810.6,870.6 803.2,867.6 800.0,875.0 796.8,867.6 789.4,870.6 792.4,863.2 785.0,860.0 792.4,856.8 789.4,849.4 796.8,852.4 800.0,845.0 803.2,852.4 810.6,849.4 807.6,856.8" fill="#065f46" opacity="0.2"/><polygon points="895.0,40.0 887.6,43.2 890.6,50.6 883.2,47.6 880.0,55.0 876.8,47.6 869.4,50.6 872.4,43.2 865.0,40.0 872.4,36.8 869.4,29.4 876.8,32.4 880.0,25.0 883.2,32.4 890.6,29.4 887.6,36.8" fill="#065f46" opacity="0.2"/><polygon points="895.0,860.0 887.6,863.2 890.6,870.6 883.2,867.6 880.0,875.0 876.8,867.6 869.4,870.6 872.4,863.2 865.0,860.0 872.4,856.8 869.4,849.4 876.8,852.4 880.0,845.0 883.2,852.4 890.6,849.4 887.6,856.8" fill="#065f46" opacity="0.2"/><polygon points="975.0,40.0 967.6,43.2 970.6,50.6 963.2,47.6 960.0,55.0 956.8,47.6 949.4,50.6 952.4,43.2 945.0,40.0 952.4,36.8 949.4,29.4 956.8,32.4 960.0,25.0 963.2,32.4 970.6,29.4 967.6,36.8" fill="#065f46" opacity="0.2"/><polygon points="975.0,860.0 967.6,863.2 970.6,870.6 963.2,867.6 960.0,875.0 956.8,867.6 949.4,870.6 952.4,863.2 945.0,860.0 952.4,856.8 949.4,849.4 956.8,852.4 960.0,845.0 963.2,852.4 970.6,849.4 967.6,856.8" fill="#065f46" opacity="0.2"/><polygon points="1055.0,40.0 1047.6,43.2 1050.6,50.6 1043.2,47.6 1040.0,55.0 1036.8,47.6 1029.4,50.6 1032.4,43.2 1025.0,40.0 1032.4,36.8 1029.4,29.4 1036.8,32.4 1040.0,25.0 1043.2,32.4 1050.6,29.4 1047.6,36.8" fill="#065f46" opacity="0.2"/><polygon points="1055.0,860.0 1047.6,863.2 1050.6,870.6 1043.2,867.6 1040.0,875.0 1036.8,867.6 1029.4,870.6 1032.4,863.2 1025.0,860.0 1032.4,856.8 1029.4,849.4 1036.8,852.4 1040.0,845.0 1043.2,852.4 1050.6,849.4 1047.6,856.8" fill="#065f46" opacity="0.2"/><polygon points="1135.0,40.0 1127.6,43.2 1130.6,50.6 1123.2,47.6 1120.0,55.0 1116.8,47.6 1109.4,50.6 1112.4,43.2 1105.0,40.0 1112.4,36.8 1109.4,29.4 1116.8,32.4 1120.0,25.0 1123.2,32.4 1130.6,29.4 1127.6,36.8" fill="#065f46" opacity="0.2"/><polygon points="1135.0,860.0 1127.6,863.2 1130.6,870.6 1123.2,867.6 1120.0,875.0 1116.8,867.6 1109.4,870.6 1112.4,863.2 1105.0,860.0 1112.4,856.8 1109.4,849.4 1116.8,852.4 1120.0,845.0 1123.2,852.4 1130.6,849.4 1127.6,856.8" fill="#065f46" opacity="0.2"/><polygon points="1215.0,40.0 1207.6,43.2 1210.6,50.6 1203.2,47.6 1200.0,55.0 1196.8,47.6 1189.4,50.6 1192.4,43.2 1185.0,40.0 1192.4,36.8 1189.4,29.4 1196.8,32.4 1200.0,25.0 1203.2,32.4 1210.6,29.4 1207.6,36.8" fill="#065f46" opacity="0.2"/><polygon points="1215.0,860.0 1207.6,863.2 1210.6,870.6 1203.2,867.6 1200.0,875.0 1196.8,867.6 1189.4,870.6 1192.4,863.2 1185.0,860.0 1192.4,856.8 1189.4,849.4 1196.8,852.4 1200.0,845.0 1203.2,852.4 1210.6,849.4 1207.6,856.8" fill="#065f46" opacity="0.2"/><polygon points="1295.0,40.0 1287.6,43.2 1290.6,50.6 1283.2,47.6 1280.0,55.0 1276.8,47.6 1269.4,50.6 1272.4,43.2 1265.0,40.0 1272.4,36.8 1269.4,29.4 1276.8,32.4 1280.0,25.0 1283.2,32.4 1290.6,29.4 1287.6,36.8" fill="#065f46" opacity="0.2"/><polygon points="1295.0,860.0 1287.6,863.2 1290.6,870.6 1283.2,867.6 1280.0,875.0 1276.8,867.6 1269.4,870.6 1272.4,863.2 1265.0,860.0 1272.4,856.8 1269.4,849.4 1276.8,852.4 1280.0,845.0 1283.2,852.4 1290.6,849.4 1287.6,856.8" fill="#065f46" opacity="0.2"/><polygon points="1375.0,40.0 1367.6,43.2 1370.6,50.6 1363.2,47.6 1360.0,55.0 1356.8,47.6 1349.4,50.6 1352.4,43.2 1345.0,40.0 1352.4,36.8 1349.4,29.4 1356.8,32.4 1360.0,25.0 1363.2,32.4 1370.6,29.4 1367.6,36.8" fill="#065f46" opacity="0.2"/><polygon points="1375.0,860.0 1367.6,863.2 1370.6,870.6 1363.2,867.6 1360.0,875.0 1356.8,867.6 1349.4,870.6 1352.4,863.2 1345.0,860.0 1352.4,856.8 1349.4,849.4 1356.8,852.4 1360.0,845.0 1363.2,852.4 1370.6,849.4 1367.6,856.8" fill="#065f46" opacity="0.2"/><polygon points="1455.0,40.0 1447.6,43.2 1450.6,50.6 1443.2,47.6 1440.0,55.0 1436.8,47.6 1429.4,50.6 1432.4,43.2 1425.0,40.0 1432.4,36.8 1429.4,29.4 1436.8,32.4 1440.0,25.0 1443.2,32.4 1450.6,29.4 1447.6,36.8" fill="#065f46" opacity="0.2"/><polygon points="1455.0,860.0 1447.6,863.2 1450.6,870.6 1443.2,867.6 1440.0,875.0 1436.8,867.6 1429.4,870.6 1432.4,863.2 1425.0,860.0 1432.4,856.8 1429.4,849.4 1436.8,852.4 1440.0,845.0 1443.2,852.4 1450.6,849.4 1447.6,856.8" fill="#065f46" opacity="0.2"/><polygon points="1535.0,40.0 1527.6,43.2 1530.6,50.6 1523.2,47.6 1520.0,55.0 1516.8,47.6 1509.4,50.6 1512.4,43.2 1505.0,40.0 1512.4,36.8 1509.4,29.4 1516.8,32.4 1520.0,25.0 1523.2,32.4 1530.6,29.4 1527.6,36.8" fill="#065f46" opacity="0.2"/><polygon points="1535.0,860.0 1527.6,863.2 1530.6,870.6 1523.2,867.6 1520.0,875.0 1516.8,867.6 1509.4,870.6 1512.4,863.2 1505.0,860.0 1512.4,856.8 1509.4,849.4 1516.8,852.4 1520.0,845.0 1523.2,852.4 1530.6,849.4 1527.6,856.8" fill="#065f46" opacity="0.2"/><text x="750.0" y="110" font-family="Georgia, serif" font-size="46" font-weight="800" fill="#064e3b" text-anchor="middle">Learning Journey — Roadmap Belajar</text>
<text x="750.0" y="150" font-family="Georgia, serif" font-size="20" fill="#065f46" text-anchor="middle" opacity="0.75">Alur belajar sederhana dari awal sampai selesai</text><path d="M250 320 L500 320 L750 320 L1000 320 Q1150 320 1150 470.0 Q1150 620 1000 620 L750 620 L500 620 L250 620" fill="none" stroke="#059669" stroke-width="6" stroke-dasharray="12,8" opacity="0.6"/><circle cx="250" cy="320" r="60" fill="#065f46"/><circle cx="250" cy="320" r="52" fill="none" stroke="#fbbf24" stroke-width="4" opacity="0.9"/><g transform="translate(223.0,293.0)">
        <path d="M8.1 40.5 Q2.7 27.0 8.1 18.9 L18.9 8.1 Q27.0 2.7 35.1 8.1 L45.9 18.9 Q51.3 27.0 45.9 40.5 Q27.0 51.3 8.1 40.5 Z"
              fill="#fef3c7" opacity="0.95"/>
        </g><circle cx="292" cy="278" r="18" fill="#fbbf24" stroke="#064e3b" stroke-width="2"/><text x="292" y="284" font-family="Georgia,serif" font-size="18" font-weight="700" fill="#064e3b" text-anchor="middle">1</text><text x="250" y="420" font-family="Georgia,serif" font-size="20" font-weight="700" fill="#064e3b" text-anchor="middle">Selamat Datang</text><circle cx="500" cy="320" r="60" fill="#10b981"/><circle cx="500" cy="320" r="52" fill="none" stroke="#fbbf24" stroke-width="4" opacity="0.9"/><g transform="translate(473.0,293.0)">
        <path d="M5.4 10.8 L21.6 5.4 L37.8 13.5 L48.6 8.1 L48.6 43.2 L37.8 48.6 L21.6 40.5 L5.4 45.9 Z"
              fill="#fef3c7" opacity="0.95"/>
        <line x1="21.6" y1="5.4" x2="21.6" y2="40.5" stroke="#064e3b" stroke-width="2" opacity="0.6"/>
        <line x1="37.8" y1="13.5" x2="37.8" y2="48.6" stroke="#064e3b" stroke-width="2" opacity="0.6"/>
        </g><circle cx="542" cy="278" r="18" fill="#fbbf24" stroke="#064e3b" stroke-width="2"/><text x="542" y="284" font-family="Georgia,serif" font-size="18" font-weight="700" fill="#064e3b" text-anchor="middle">2</text><text x="500" y="420" font-family="Georgia,serif" font-size="20" font-weight="700" fill="#064e3b" text-anchor="middle">Lihat Roadmap</text><circle cx="750" cy="320" r="60" fill="#0f766e"/><circle cx="750" cy="320" r="52" fill="none" stroke="#fbbf24" stroke-width="4" opacity="0.9"/><g transform="translate(723.0,293.0)">
        <path d="M5.4 10.8 L27.0 8.1 L48.6 10.8 L48.6 45.9 L27.0 43.2 L5.4 45.9 Z"
              fill="#fef3c7" opacity="0.95"/>
        <line x1="27.0" y1="8.1" x2="27.0" y2="43.2" stroke="#064e3b" stroke-width="2" opacity="0.6"/>
        </g><circle cx="792" cy="278" r="18" fill="#fbbf24" stroke="#064e3b" stroke-width="2"/><text x="792" y="284" font-family="Georgia,serif" font-size="18" font-weight="700" fill="#064e3b" text-anchor="middle">3</text><text x="750" y="420" font-family="Georgia,serif" font-size="20" font-weight="700" fill="#064e3b" text-anchor="middle">Modul 1</text><circle cx="1000" cy="320" r="60" fill="#14b8a6"/><circle cx="1000" cy="320" r="52" fill="none" stroke="#fbbf24" stroke-width="4" opacity="0.9"/><g transform="translate(973.0,293.0)">
        <path d="M5.4 10.8 L27.0 8.1 L48.6 10.8 L48.6 45.9 L27.0 43.2 L5.4 45.9 Z"
              fill="#fef3c7" opacity="0.95"/>
        <line x1="27.0" y1="8.1" x2="27.0" y2="43.2" stroke="#064e3b" stroke-width="2" opacity="0.6"/>
        </g><circle cx="1042" cy="278" r="18" fill="#fbbf24" stroke="#064e3b" stroke-width="2"/><text x="1042" y="284" font-family="Georgia,serif" font-size="18" font-weight="700" fill="#064e3b" text-anchor="middle">4</text><text x="1000" y="420" font-family="Georgia,serif" font-size="20" font-weight="700" fill="#064e3b" text-anchor="middle">Modul 2</text><circle cx="1000" cy="620" r="60" fill="#065f46"/><circle cx="1000" cy="620" r="52" fill="none" stroke="#fbbf24" stroke-width="4" opacity="0.9"/><g transform="translate(973.0,593.0)">
        <path d="M5.4 10.8 L27.0 8.1 L48.6 10.8 L48.6 45.9 L27.0 43.2 L5.4 45.9 Z"
              fill="#fef3c7" opacity="0.95"/>
        <line x1="27.0" y1="8.1" x2="27.0" y2="43.2" stroke="#064e3b" stroke-width="2" opacity="0.6"/>
        </g><circle cx="1042" cy="578" r="18" fill="#fbbf24" stroke="#064e3b" stroke-width="2"/><text x="1042" y="584" font-family="Georgia,serif" font-size="18" font-weight="700" fill="#064e3b" text-anchor="middle">5</text><text x="1000" y="720" font-family="Georgia,serif" font-size="20" font-weight="700" fill="#064e3b" text-anchor="middle">Modul 3</text><circle cx="750" cy="620" r="60" fill="#10b981"/><circle cx="750" cy="620" r="52" fill="none" stroke="#fbbf24" stroke-width="4" opacity="0.9"/><g transform="translate(723.0,593.0)">
        <path d="M5.4 10.8 L27.0 8.1 L48.6 10.8 L48.6 45.9 L27.0 43.2 L5.4 45.9 Z"
              fill="#fef3c7" opacity="0.95"/>
        <line x1="27.0" y1="8.1" x2="27.0" y2="43.2" stroke="#064e3b" stroke-width="2" opacity="0.6"/>
        </g><circle cx="792" cy="578" r="18" fill="#fbbf24" stroke="#064e3b" stroke-width="2"/><text x="792" y="584" font-family="Georgia,serif" font-size="18" font-weight="700" fill="#064e3b" text-anchor="middle">6</text><text x="750" y="720" font-family="Georgia,serif" font-size="20" font-weight="700" fill="#064e3b" text-anchor="middle">Modul 4</text><circle cx="500" cy="620" r="60" fill="#0f766e"/><circle cx="500" cy="620" r="52" fill="none" stroke="#fbbf24" stroke-width="4" opacity="0.9"/><g transform="translate(473.0,593.0)">
        <path d="M8.1 45.9 L29.700000000000003 8.1 L45.9 24.3 L24.3 48.6 L8.1 45.9 Z"
              fill="#fef3c7" opacity="0.95"/>
        <path d="M40.5 13.5 L45.9 8.1 L51.3 13.5 L45.9 18.9 Z" fill="#064e3b" opacity="0.7"/>
        </g><circle cx="542" cy="578" r="18" fill="#fbbf24" stroke="#064e3b" stroke-width="2"/><text x="542" y="584" font-family="Georgia,serif" font-size="18" font-weight="700" fill="#064e3b" text-anchor="middle">7</text><text x="500" y="720" font-family="Georgia,serif" font-size="20" font-weight="700" fill="#064e3b" text-anchor="middle">Kerjakan Kuis</text><circle cx="250" cy="620" r="60" fill="#14b8a6"/><circle cx="250" cy="620" r="52" fill="none" stroke="#fbbf24" stroke-width="4" opacity="0.9"/><g transform="translate(223.0,593.0)">
        <circle cx="27.0" cy="27.0" r="21.6" fill="#fef3c7" opacity="0.95"/>
        <path d="M16.2 27.0 L24.3 35.1 L37.8 21.6" fill="none" stroke="#064e3b" stroke-width="4" stroke-linecap="round" stroke-linejoin="round"/>
        </g><circle cx="292" cy="578" r="18" fill="#fbbf24" stroke="#064e3b" stroke-width="2"/><text x="292" y="584" font-family="Georgia,serif" font-size="18" font-weight="700" fill="#064e3b" text-anchor="middle">8</text><text x="250" y="720" font-family="Georgia,serif" font-size="20" font-weight="700" fill="#064e3b" text-anchor="middle">Selesaikan Course</text><text x="750.0" y="860" font-family="Georgia,serif" font-size="16" fill="#065f46" text-anchor="middle" opacity="0.7">Draft prototype — E-Course Learning Workspace</text>
</svg>