<?xml version="1.0" encoding="UTF-8"?>
<svg xmlns="http://www.w3.org/2000/svg" viewBox="0 0 1500 500" width="1500" height="500">
<defs>
    <linearGradient id="g1" x1="0" y1="0" x2="1" y2="1">
      <stop offset="0" stop-color="#065f46"/>
      <stop offset="1" stop-color="#10b981"/>
    </linearGradient>
  </defs>
  <rect width="1500" height="500" fill="url(#g1)"/><polygon points="230.0,200.0 215.2,206.3 221.2,221.2 206.3,215.2 200.0,230.0 193.7,215.2 178.8,221.2 184.8,206.3 170.0,200.0 184.8,193.7 178.8,178.8 193.7,184.8 200.0,170.0 206.3,184.8 221.2,178.8 215.2,193.7" fill="#fef3c7" opacity="0.15" stroke="none" stroke-width="0"/>
<polygon points="230.0,400.0 215.2,406.3 221.2,421.2 206.3,415.2 200.0,430.0 193.7,415.2 178.8,421.2 184.8,406.3 170.0,400.0 184.8,393.7 178.8,378.8 193.7,384.8 200.0,370.0 206.3,384.8 221.2,378.8 215.2,393.7" fill="#fef3c7" opacity="0.15" stroke="none" stroke-width="0"/>
<polygon points="430.0,200.0 415.2,206.3 421.2,221.2 406.3,215.2 400.0,230.0 393.7,215.2 378.8,221.2 384.8,206.3 370.0,200.0 384.8,193.7 378.8,178.8 393.7,184.8 400.0,170.0 406.3,184.8 421.2,178.8 415.2,193.7" fill="#fef3c7" opacity="0.15" stroke="none" stroke-width="0"/>
<polygon points="430.0,400.0 415.2,406.3 421.2,421.2 406.3,415.2 400.0,430.0 393.7,415.2 378.8,421.2 384.8,406.3 370.0,400.0 384.8,393.7 378.8,378.8 393.7,384.8 400.0,370.0 406.3,384.8 421.2,378.8 415.2,393.7" fill="#fef3c7" opacity="0.15" stroke="none" stroke-width="0"/>
<polygon points="630.0,200.0 615.2,206.3 621.2,221.2 606.3,215.2 600.0,230.0 593.7,215.2 578.8,221.2 584.8,206.3 570.0,200.0 584.8,193.7 578.8,178.8 593.7,184.8 600.0,170.0 606.3,184.8 621.2,178.8 615.2,193.7" fill="#fef3c7" opacity="0.15" stroke="none" stroke-width="0"/>
<polygon points="630.0,400.0 615.2,406.3 621.2,421.2 606.3,415.2 600.0,430.0 593.7,415.2 578.8,421.2 584.8,406.3 570.0,400.0 584.8,393.7 578.8,378.8 593.7,384.8 600.0,370.0 606.3,384.8 621.2,378.8 615.2,393.7" fill="#fef3c7" opacity="0.15" stroke="none" stroke-width="0"/>
<polygon points="830.0,200.0 815.2,206.3 821.2,221.2 806.3,215.2 800.0,230.0 793.7,215.2 778.8,221.2 784.8,206.3 770.0,200.0 784.8,193.7 778.8,178.8 793.7,184.8 800.0,170.0 806.3,184.8 821.2,178.8 815.2,193.7" fill="#fef3c7" opacity="0.15" stroke="none" stroke-width="0"/>
<polygon points="830.0,400.0 815.2,406.3 821.2,421.2 806.3,415.2 800.0,430.0 793.7,415.2 778.8,421.2 784.8,406.3 770.0,400.0 784.8,393.7 778.8,378.8 793.7,384.8 800.0,370.0 806.3,384.8 821.2,378.8 815.2,393.7" fill="#fef3c7" opacity="0.15" stroke="none" stroke-width="0"/>
<polygon points="1030.0,200.0 1015.2,206.3 1021.2,221.2 1006.3,215.2 1000.0,230.0 993.7,215.2 978.8,221.2 984.8,206.3 970.0,200.0 984.8,193.7 978.8,178.8 993.7,184.8 1000.0,170.0 1006.3,184.8 1021.2,178.8 1015.2,193.7" fill="#fef3c7" opacity="0.15" stroke="none" stroke-width="0"/>
<polygon points="1030.0,400.0 1015.2,406.3 1021.2,421.2 1006.3,415.2 1000.0,430.0 993.7,415.2 978.8,421.2 984.8,406.3 970.0,400.0 984.8,393.7 978.8,378.8 993.7,384.8 1000.0,370.0 1006.3,384.8 1021.2,378.8 1015.2,393.7" fill="#fef3c7" opacity="0.15" stroke="none" stroke-width="0"/>
<polygon points="1230.0,200.0 1215.2,206.3 1221.2,221.2 1206.3,215.2 1200.0,230.0 1193.7,215.2 1178.8,221.2 1184.8,206.3 1170.0,200.0 1184.8,193.7 1178.8,178.8 1193.7,184.8 1200.0,170.0 1206.3,184.8 1221.2,178.8 1215.2,193.7" fill="#fef3c7" opacity="0.15" stroke="none" stroke-width="0"/>
<polygon points="1230.0,400.0 1215.2,406.3 1221.2,421.2 1206.3,415.2 1200.0,430.0 1193.7,415.2 1178.8,421.2 1184.8,406.3 1170.0,400.0 1184.8,393.7 1178.8,378.8 1193.7,384.8 1200.0,370.0 1206.3,384.8 1221.2,378.8 1215.2,393.7" fill="#fef3c7" opacity="0.15" stroke="none" stroke-width="0"/>
<polygon points="1430.0,200.0 1415.2,206.3 1421.2,221.2 1406.3,215.2 1400.0,230.0 1393.7,215.2 1378.8,221.2 1384.8,206.3 1370.0,200.0 1384.8,193.7 1378.8,178.8 1393.7,184.8 1400.0,170.0 1406.3,184.8 1421.2,178.8 1415.2,193.7" fill="#fef3c7" opacity="0.15" stroke="none" stroke-width="0"/>
<polygon points="1430.0,400.0 1415.2,406.3 1421.2,421.2 1406.3,415.2 1400.0,430.0 1393.7,415.2 1378.8,421.2 1384.8,406.3 1370.0,400.0 1384.8,393.7 1378.8,378.8 1393.7,384.8 1400.0,370.0 1406.3,384.8 1421.2,378.8 1415.2,393.7" fill="#fef3c7" opacity="0.15" stroke="none" stroke-width="0"/><polygon points="880.0,250.0 816.1,277.4 841.9,341.9 777.4,316.1 750.0,380.0 722.6,316.1 658.1,341.9 683.9,277.4 620.0,250.0 683.9,222.6 658.1,158.1 722.6,183.9 750.0,120.0 777.4,183.9 841.9,158.1 816.1,222.6" fill="#fbbf24" stroke="#fef3c7" stroke-width="6"/><text x="750.0" y="265.0" font-family="Georgia,serif" font-size="42" font-weight="700" fill="#ffffff" text-anchor="middle" opacity="0.9">E-COURSE</text>
</svg>