<?xml version="1.0" encoding="UTF-8"?>
<svg xmlns="http://www.w3.org/2000/svg" viewBox="0 0 1500 500" width="1500" height="500">
<defs>
    <linearGradient id="g2" x1="0" y1="0" x2="1" y2="1">
      <stop offset="0" stop-color="#0f766e"/>
      <stop offset="1" stop-color="#14b8a6"/>
    </linearGradient>
  </defs>
  <rect width="1500" height="500" fill="url(#g2)"/><polygon points="100.0,0.0 80.0,34.6 40.0,34.6 20.0,0.0 40.0,-34.6 80.0,-34.6" fill="#fef3c7" opacity="0.25"/><polygon points="40.0,100.0 20.0,134.6 -20.0,134.6 -40.0,100.0 -20.0,65.4 20.0,65.4" fill="#fef3c7" opacity="0.25"/><polygon points="100.0,200.0 80.0,234.6 40.0,234.6 20.0,200.0 40.0,165.4 80.0,165.4" fill="#fef3c7" opacity="0.25"/><polygon points="40.0,300.0 20.0,334.6 -20.0,334.6 -40.0,300.0 -20.0,265.4 20.0,265.4" fill="#fef3c7" opacity="0.25"/><polygon points="100.0,400.0 80.0,434.6 40.0,434.6 20.0,400.0 40.0,365.4 80.0,365.4" fill="#fef3c7" opacity="0.25"/><polygon points="40.0,500.0 20.0,534.6 -20.0,534.6 -40.0,500.0 -20.0,465.4 20.0,465.4" fill="#fef3c7" opacity="0.25"/><polygon points="100.0,600.0 80.0,634.6 40.0,634.6 20.0,600.0 40.0,565.4 80.0,565.4" fill="#fef3c7" opacity="0.25"/><polygon points="220.0,0.0 200.0,34.6 160.0,34.6 140.0,0.0 160.0,-34.6 200.0,-34.6" fill="#fef3c7" opacity="0.25"/><polygon points="160.0,100.0 140.0,134.6 100.0,134.6 80.0,100.0 100.0,65.4 140.0,65.4" fill="#fef3c7" opacity="0.25"/><polygon points="220.0,200.0 200.0,234.6 160.0,234.6 140.0,200.0 160.0,165.4 200.0,165.4" fill="#fef3c7" opacity="0.25"/><polygon points="160.0,300.0 140.0,334.6 100.0,334.6 80.0,300.0 100.0,265.4 140.0,265.4" fill="#fef3c7" opacity="0.25"/><polygon points="220.0,400.0 200.0,434.6 160.0,434.6 140.0,400.0 160.0,365.4 200.0,365.4" fill="#fef3c7" opacity="0.25"/><polygon points="160.0,500.0 140.0,534.6 100.0,534.6 80.0,500.0 100.0,465.4 140.0,465.4" fill="#fef3c7" opacity="0.25"/><polygon points="220.0,600.0 200.0,634.6 160.0,634.6 140.0,600.0 160.0,565.4 200.0,565.4" fill="#fef3c7" opacity="0.25"/><polygon points="340.0,0.0 320.0,34.6 280.0,34.6 260.0,0.0 280.0,-34.6 320.0,-34.6" fill="#fef3c7" opacity="0.25"/><polygon points="280.0,100.0 260.0,134.6 220.0,134.6 200.0,100.0 220.0,65.4 260.0,65.4" fill="#fef3c7" opacity="0.25"/><polygon points="340.0,200.0 320.0,234.6 280.0,234.6 260.0,200.0 280.0,165.4 320.0,165.4" fill="#fef3c7" opacity="0.25"/><polygon points="280.0,300.0 260.0,334.6 220.0,334.6 200.0,300.0 220.0,265.4 260.0,265.4" fill="#fef3c7" opacity="0.25"/><polygon points="340.0,400.0 320.0,434.6 280.0,434.6 260.0,400.0 280.0,365.4 320.0,365.4" fill="#fef3c7" opacity="0.25"/><polygon points="280.0,500.0 260.0,534.6 220.0,534.6 200.0,500.0 220.0,465.4 260.0,465.4" fill="#fef3c7" opacity="0.25"/><polygon points="340.0,600.0 320.0,634.6 280.0,634.6 260.0,600.0 280.0,565.4 320.0,565.4" fill="#fef3c7" opacity="0.25"/><polygon points="460.0,0.0 440.0,34.6 400.0,34.6 380.0,0.0 400.0,-34.6 440.0,-34.6" fill="#fef3c7" opacity="0.25"/><polygon points="400.0,100.0 380.0,134.6 340.0,134.6 320.0,100.0 340.0,65.4 380.0,65.4" fill="#fef3c7" opacity="0.25"/><polygon points="460.0,200.0 440.0,234.6 400.0,234.6 380.0,200.0 400.0,165.4 440.0,165.4" fill="#fef3c7" opacity="0.25"/><polygon points="400.0,300.0 380.0,334.6 340.0,334.6 320.0,300.0 340.0,265.4 380.0,265.4" fill="#fef3c7" opacity="0.25"/><polygon points="460.0,400.0 440.0,434.6 400.0,434.6 380.0,400.0 400.0,365.4 440.0,365.4" fill="#fef3c7" opacity="0.25"/><polygon points="400.0,500.0 380.0,534.6 340.0,534.6 320.0,500.0 340.0,465.4 380.0,465.4" fill="#fef3c7" opacity="0.25"/><polygon points="460.0,600.0 440.0,634.6 400.0,634.6 380.0,600.0 400.0,565.4 440.0,565.4" fill="#fef3c7" opacity="0.25"/><polygon points="580.0,0.0 560.0,34.6 520.0,34.6 500.0,0.0 520.0,-34.6 560.0,-34.6" fill="#fef3c7" opacity="0.25"/><polygon points="520.0,100.0 500.0,134.6 460.0,134.6 440.0,100.0 460.0,65.4 500.0,65.4" fill="#fef3c7" opacity="0.25"/><polygon points="580.0,200.0 560.0,234.6 520.0,234.6 500.0,200.0 520.0,165.4 560.0,165.4" fill="#fef3c7" opacity="0.25"/><polygon points="520.0,300.0 500.0,334.6 460.0,334.6 440.0,300.0 460.0,265.4 500.0,265.4" fill="#fef3c7" opacity="0.25"/><polygon points="580.0,400.0 560.0,434.6 520.0,434.6 500.0,400.0 520.0,365.4 560.0,365.4" fill="#fef3c7" opacity="0.25"/><polygon points="520.0,500.0 500.0,534.6 460.0,534.6 440.0,500.0 460.0,465.4 500.0,465.4" fill="#fef3c7" opacity="0.25"/><polygon points="580.0,600.0 560.0,634.6 520.0,634.6 500.0,600.0 520.0,565.4 560.0,565.4" fill="#fef3c7" opacity="0.25"/><polygon points="700.0,0.0 680.0,34.6 640.0,34.6 620.0,0.0 640.0,-34.6 680.0,-34.6" fill="#fef3c7" opacity="0.25"/><polygon points="640.0,100.0 620.0,134.6 580.0,134.6 560.0,100.0 580.0,65.4 620.0,65.4" fill="#fef3c7" opacity="0.25"/><polygon points="700.0,200.0 680.0,234.6 640.0,234.6 620.0,200.0 640.0,165.4 680.0,165.4" fill="#fef3c7" opacity="0.25"/><polygon points="640.0,300.0 620.0,334.6 580.0,334.6 560.0,300.0 580.0,265.4 620.0,265.4" fill="#fef3c7" opacity="0.25"/><polygon points="700.0,400.0 680.0,434.6 640.0,434.6 620.0,400.0 640.0,365.4 680.0,365.4" fill="#fef3c7" opacity="0.25"/><polygon points="640.0,500.0 620.0,534.6 580.0,534.6 560.0,500.0 580.0,465.4 620.0,465.4" fill="#fef3c7" opacity="0.25"/><polygon points="700.0,600.0 680.0,634.6 640.0,634.6 620.0,600.0 640.0,565.4 680.0,565.4" fill="#fef3c7" opacity="0.25"/><polygon points="820.0,0.0 800.0,34.6 760.0,34.6 740.0,0.0 760.0,-34.6 800.0,-34.6" fill="#fef3c7" opacity="0.25"/><polygon points="760.0,100.0 740.0,134.6 700.0,134.6 680.0,100.0 700.0,65.4 740.0,65.4" fill="#fef3c7" opacity="0.25"/><polygon points="820.0,200.0 800.0,234.6 760.0,234.6 740.0,200.0 760.0,165.4 800.0,165.4" fill="#fef3c7" opacity="0.25"/><polygon points="760.0,300.0 740.0,334.6 700.0,334.6 680.0,300.0 700.0,265.4 740.0,265.4" fill="#fef3c7" opacity="0.25"/><polygon points="820.0,400.0 800.0,434.6 760.0,434.6 740.0,400.0 760.0,365.4 800.0,365.4" fill="#fef3c7" opacity="0.25"/><polygon points="760.0,500.0 740.0,534.6 700.0,534.6 680.0,500.0 700.0,465.4 740.0,465.4" fill="#fef3c7" opacity="0.25"/><polygon points="820.0,600.0 800.0,634.6 760.0,634.6 740.0,600.0 760.0,565.4 800.0,565.4" fill="#fef3c7" opacity="0.25"/><polygon points="940.0,0.0 920.0,34.6 880.0,34.6 860.0,0.0 880.0,-34.6 920.0,-34.6" fill="#fef3c7" opacity="0.25"/><polygon points="880.0,100.0 860.0,134.6 820.0,134.6 800.0,100.0 820.0,65.4 860.0,65.4" fill="#fef3c7" opacity="0.25"/><polygon points="940.0,200.0 920.0,234.6 880.0,234.6 860.0,200.0 880.0,165.4 920.0,165.4" fill="#fef3c7" opacity="0.25"/><polygon points="880.0,300.0 860.0,334.6 820.0,334.6 800.0,300.0 820.0,265.4 860.0,265.4" fill="#fef3c7" opacity="0.25"/><polygon points="940.0,400.0 920.0,434.6 880.0,434.6 860.0,400.0 880.0,365.4 920.0,365.4" fill="#fef3c7" opacity="0.25"/><polygon points="880.0,500.0 860.0,534.6 820.0,534.6 800.0,500.0 820.0,465.4 860.0,465.4" fill="#fef3c7" opacity="0.25"/><polygon points="940.0,600.0 920.0,634.6 880.0,634.6 860.0,600.0 880.0,565.4 920.0,565.4" fill="#fef3c7" opacity="0.25"/><polygon points="1060.0,0.0 1040.0,34.6 1000.0,34.6 980.0,0.0 1000.0,-34.6 1040.0,-34.6" fill="#fef3c7" opacity="0.25"/><polygon points="1000.0,100.0 980.0,134.6 940.0,134.6 920.0,100.0 940.0,65.4 980.0,65.4" fill="#fef3c7" opacity="0.25"/><polygon points="1060.0,200.0 1040.0,234.6 1000.0,234.6 980.0,200.0 1000.0,165.4 1040.0,165.4" fill="#fef3c7" opacity="0.25"/><polygon points="1000.0,300.0 980.0,334.6 940.0,334.6 920.0,300.0 940.0,265.4 980.0,265.4" fill="#fef3c7" opacity="0.25"/><polygon points="1060.0,400.0 1040.0,434.6 1000.0,434.6 980.0,400.0 1000.0,365.4 1040.0,365.4" fill="#fef3c7" opacity="0.25"/><polygon points="1000.0,500.0 980.0,534.6 940.0,534.6 920.0,500.0 940.0,465.4 980.0,465.4" fill="#fef3c7" opacity="0.25"/><polygon points="1060.0,600.0 1040.0,634.6 1000.0,634.6 980.0,600.0 1000.0,565.4 1040.0,565.4" fill="#fef3c7" opacity="0.25"/><polygon points="1180.0,0.0 1160.0,34.6 1120.0,34.6 1100.0,0.0 1120.0,-34.6 1160.0,-34.6" fill="#fef3c7" opacity="0.25"/><polygon points="1120.0,100.0 1100.0,134.6 1060.0,134.6 1040.0,100.0 1060.0,65.4 1100.0,65.4" fill="#fef3c7" opacity="0.25"/><polygon points="1180.0,200.0 1160.0,234.6 1120.0,234.6 1100.0,200.0 1120.0,165.4 1160.0,165.4" fill="#fef3c7" opacity="0.25"/><polygon points="1120.0,300.0 1100.0,334.6 1060.0,334.6 1040.0,300.0 1060.0,265.4 1100.0,265.4" fill="#fef3c7" opacity="0.25"/><polygon points="1180.0,400.0 1160.0,434.6 1120.0,434.6 1100.0,400.0 1120.0,365.4 1160.0,365.4" fill="#fef3c7" opacity="0.25"/><polygon points="1120.0,500.0 1100.0,534.6 1060.0,534.6 1040.0,500.0 1060.0,465.4 1100.0,465.4" fill="#fef3c7" opacity="0.25"/><polygon points="1180.0,600.0 1160.0,634.6 1120.0,634.6 1100.0,600.0 1120.0,565.4 1160.0,565.4" fill="#fef3c7" opacity="0.25"/><polygon points="1300.0,0.0 1280.0,34.6 1240.0,34.6 1220.0,0.0 1240.0,-34.6 1280.0,-34.6" fill="#fef3c7" opacity="0.25"/><polygon points="1240.0,100.0 1220.0,134.6 1180.0,134.6 1160.0,100.0 1180.0,65.4 1220.0,65.4" fill="#fef3c7" opacity="0.25"/><polygon points="1300.0,200.0 1280.0,234.6 1240.0,234.6 1220.0,200.0 1240.0,165.4 1280.0,165.4" fill="#fef3c7" opacity="0.25"/><polygon points="1240.0,300.0 1220.0,334.6 1180.0,334.6 1160.0,300.0 1180.0,265.4 1220.0,265.4" fill="#fef3c7" opacity="0.25"/><polygon points="1300.0,400.0 1280.0,434.6 1240.0,434.6 1220.0,400.0 1240.0,365.4 1280.0,365.4" fill="#fef3c7" opacity="0.25"/><polygon points="1240.0,500.0 1220.0,534.6 1180.0,534.6 1160.0,500.0 1180.0,465.4 1220.0,465.4" fill="#fef3c7" opacity="0.25"/><polygon points="1300.0,600.0 1280.0,634.6 1240.0,634.6 1220.0,600.0 1240.0,565.4 1280.0,565.4" fill="#fef3c7" opacity="0.25"/><polygon points="1420.0,0.0 1400.0,34.6 1360.0,34.6 1340.0,0.0 1360.0,-34.6 1400.0,-34.6" fill="#fef3c7" opacity="0.25"/><polygon points="1360.0,100.0 1340.0,134.6 1300.0,134.6 1280.0,100.0 1300.0,65.4 1340.0,65.4" fill="#fef3c7" opacity="0.25"/><polygon points="1420.0,200.0 1400.0,234.6 1360.0,234.6 1340.0,200.0 1360.0,165.4 1400.0,165.4" fill="#fef3c7" opacity="0.25"/><polygon points="1360.0,300.0 1340.0,334.6 1300.0,334.6 1280.0,300.0 1300.0,265.4 1340.0,265.4" fill="#fef3c7" opacity="0.25"/><polygon points="1420.0,400.0 1400.0,434.6 1360.0,434.6 1340.0,400.0 1360.0,365.4 1400.0,365.4" fill="#fef3c7" opacity="0.25"/><polygon points="1360.0,500.0 1340.0,534.6 1300.0,534.6 1280.0,500.0 1300.0,465.4 1340.0,465.4" fill="#fef3c7" opacity="0.25"/><polygon points="1420.0,600.0 1400.0,634.6 1360.0,634.6 1340.0,600.0 1360.0,565.4 1400.0,565.4" fill="#fef3c7" opacity="0.25"/><polygon points="1540.0,0.0 1520.0,34.6 1480.0,34.6 1460.0,0.0 1480.0,-34.6 1520.0,-34.6" fill="#fef3c7" opacity="0.25"/><polygon points="1480.0,100.0 1460.0,134.6 1420.0,134.6 1400.0,100.0 1420.0,65.4 1460.0,65.4" fill="#fef3c7" opacity="0.25"/><polygon points="1540.0,200.0 1520.0,234.6 1480.0,234.6 1460.0,200.0 1480.0,165.4 1520.0,165.4" fill="#fef3c7" opacity="0.25"/><polygon points="1480.0,300.0 1460.0,334.6 1420.0,334.6 1400.0,300.0 1420.0,265.4 1460.0,265.4" fill="#fef3c7" opacity="0.25"/><polygon points="1540.0,400.0 1520.0,434.6 1480.0,434.6 1460.0,400.0 1480.0,365.4 1520.0,365.4" fill="#fef3c7" opacity="0.25"/><polygon points="1480.0,500.0 1460.0,534.6 1420.0,534.6 1400.0,500.0 1420.0,465.4 1460.0,465.4" fill="#fef3c7" opacity="0.25"/><polygon points="1540.0,600.0 1520.0,634.6 1480.0,634.6 1460.0,600.0 1480.0,565.4 1520.0,565.4" fill="#fef3c7" opacity="0.25"/><polygon points="1660.0,0.0 1640.0,34.6 1600.0,34.6 1580.0,0.0 1600.0,-34.6 1640.0,-34.6" fill="#fef3c7" opacity="0.25"/><polygon points="1600.0,100.0 1580.0,134.6 1540.0,134.6 1520.0,100.0 1540.0,65.4 1580.0,65.4" fill="#fef3c7" opacity="0.25"/><polygon points="1660.0,200.0 1640.0,234.6 1600.0,234.6 1580.0,200.0 1600.0,165.4 1640.0,165.4" fill="#fef3c7" opacity="0.25"/><polygon points="1600.0,300.0 1580.0,334.6 1540.0,334.6 1520.0,300.0 1540.0,265.4 1580.0,265.4" fill="#fef3c7" opacity="0.25"/><polygon points="1660.0,400.0 1640.0,434.6 1600.0,434.6 1580.0,400.0 1600.0,365.4 1640.0,365.4" fill="#fef3c7" opacity="0.25"/><polygon points="1600.0,500.0 1580.0,534.6 1540.0,534.6 1520.0,500.0 1540.0,465.4 1580.0,465.4" fill="#fef3c7" opacity="0.25"/><polygon points="1660.0,600.0 1640.0,634.6 1600.0,634.6 1580.0,600.0 1600.0,565.4 1640.0,565.4" fill="#fef3c7" opacity="0.25"/><polygon points="840.0,250.0 795.0,327.9 705.0,327.9 660.0,250.0 705.0,172.1 795.0,172.1" fill="#f59e0b" opacity="0.85"/><text x="750.0" y="262.0" font-family="Georgia,serif" font-size="34" font-weight="700" fill="#ffffff" text-anchor="middle">DASHBOARD</text>
</svg>