<?xml version="1.0" encoding="UTF-8"?>
<svg xmlns="http://www.w3.org/2000/svg" viewBox="0 0 1500 500" width="1500" height="500">
<defs>
    <linearGradient id="g3" x1="0" y1="0" x2="1" y2="1">
      <stop offset="0" stop-color="#f5f5f4"/>
      <stop offset="1" stop-color="#fef3c7"/>
    </linearGradient>
  </defs>
  <rect width="1500" height="500" fill="url(#g3)"/><path d="M130.0 425.0
    L130.0 271.0
    Q130.0 187.0 200 145.0
    Q270.0 187.0 270.0 271.0
    L270.0 425.0 Z" fill="#065f46" opacity="0.7"/><path d="M380.0 425.0
    L380.0 271.0
    Q380.0 187.0 450 145.0
    Q520.0 187.0 520.0 271.0
    L520.0 425.0 Z" fill="#0f766e" opacity="0.7"/><path d="M680.0 425.0
    L680.0 271.0
    Q680.0 187.0 750 145.0
    Q820.0 187.0 820.0 271.0
    L820.0 425.0 Z" fill="#065f46" opacity="0.7"/><path d="M980.0 425.0
    L980.0 271.0
    Q980.0 187.0 1050 145.0
    Q1120.0 187.0 1120.0 271.0
    L1120.0 425.0 Z" fill="#0f766e" opacity="0.7"/><path d="M1230.0 425.0
    L1230.0 271.0
    Q1230.0 187.0 1300 145.0
    Q1370.0 187.0 1370.0 271.0
    L1370.0 425.0 Z" fill="#065f46" opacity="0.7"/><text x="750.0" y="80" font-family="Georgia,serif" font-size="32" font-weight="600" fill="#1c1917" text-anchor="middle">Ahlan wa Sahlan</text><text x="750.0" y="125" font-family="Georgia,serif" font-size="18" fill="#1c1917" text-anchor="middle" opacity="0.7">Welcome to Your Learning Space</text>
</svg>