<?xml version="1.0" encoding="UTF-8"?>
<svg xmlns="http://www.w3.org/2000/svg" viewBox="0 0 1500 500" width="1500" height="500">
<defs>
    <linearGradient id="g5" x1="0" y1="0" x2="1" y2="1">
      <stop offset="0" stop-color="#fef9c3"/>
      <stop offset="1" stop-color="#fed7aa"/>
    </linearGradient>
  </defs>
  <rect width="1500" height="500" fill="url(#g5)"/><rect x="-18.0" y="-18.0" width="36.0" height="36.0" fill="#065f46" opacity="0.2" transform="rotate(45 0 0)"/>
<rect x="-18.0" y="42.0" width="36.0" height="36.0" fill="#0f766e" opacity="0.2" transform="rotate(45 0 60)"/>
<rect x="-18.0" y="102.0" width="36.0" height="36.0" fill="#065f46" opacity="0.2" transform="rotate(45 0 120)"/>
<rect x="-18.0" y="162.0" width="36.0" height="36.0" fill="#0f766e" opacity="0.2" transform="rotate(45 0 180)"/>
<rect x="-18.0" y="222.0" width="36.0" height="36.0" fill="#065f46" opacity="0.2" transform="rotate(45 0 240)"/>
<rect x="-18.0" y="282.0" width="36.0" height="36.0" fill="#0f766e" opacity="0.2" transform="rotate(45 0 300)"/>
<rect x="-18.0" y="342.0" width="36.0" height="36.0" fill="#065f46" opacity="0.2" transform="rotate(45 0 360)"/>
<rect x="-18.0" y="402.0" width="36.0" height="36.0" fill="#0f766e" opacity="0.2" transform="rotate(45 0 420)"/>
<rect x="-18.0" y="462.0" width="36.0" height="36.0" fill="#065f46" opacity="0.2" transform="rotate(45 0 480)"/>
<rect x="-18.0" y="522.0" width="36.0" height="36.0" fill="#0f766e" opacity="0.2" transform="rotate(45 0 540)"/>
<rect x="42.0" y="-18.0" width="36.0" height="36.0" fill="#0f766e" opacity="0.2" transform="rotate(45 60 0)"/>
<rect x="42.0" y="42.0" width="36.0" height="36.0" fill="#065f46" opacity="0.2" transform="rotate(45 60 60)"/>
<rect x="42.0" y="102.0" width="36.0" height="36.0" fill="#0f766e" opacity="0.2" transform="rotate(45 60 120)"/>
<rect x="42.0" y="162.0" width="36.0" height="36.0" fill="#065f46" opacity="0.2" transform="rotate(45 60 180)"/>
<rect x="42.0" y="222.0" width="36.0" height="36.0" fill="#0f766e" opacity="0.2" transform="rotate(45 60 240)"/>
<rect x="42.0" y="282.0" width="36.0" height="36.0" fill="#065f46" opacity="0.2" transform="rotate(45 60 300)"/>
<rect x="42.0" y="342.0" width="36.0" height="36.0" fill="#0f766e" opacity="0.2" transform="rotate(45 60 360)"/>
<rect x="42.0" y="402.0" width="36.0" height="36.0" fill="#065f46" opacity="0.2" transform="rotate(45 60 420)"/>
<rect x="42.0" y="462.0" width="36.0" height="36.0" fill="#0f766e" opacity="0.2" transform="rotate(45 60 480)"/>
<rect x="42.0" y="522.0" width="36.0" height="36.0" fill="#065f46" opacity="0.2" transform="rotate(45 60 540)"/>
<rect x="102.0" y="-18.0" width="36.0" height="36.0" fill="#065f46" opacity="0.2" transform="rotate(45 120 0)"/>
<rect x="102.0" y="42.0" width="36.0" height="36.0" fill="#0f766e" opacity="0.2" transform="rotate(45 120 60)"/>
<rect x="102.0" y="102.0" width="36.0" height="36.0" fill="#065f46" opacity="0.2" transform="rotate(45 120 120)"/>
<rect x="102.0" y="162.0" width="36.0" height="36.0" fill="#0f766e" opacity="0.2" transform="rotate(45 120 180)"/>
<rect x="102.0" y="222.0" width="36.0" height="36.0" fill="#065f46" opacity="0.2" transform="rotate(45 120 240)"/>
<rect x="102.0" y="282.0" width="36.0" height="36.0" fill="#0f766e" opacity="0.2" transform="rotate(45 120 300)"/>
<rect x="102.0" y="342.0" width="36.0" height="36.0" fill="#065f46" opacity="0.2" transform="rotate(45 120 360)"/>
<rect x="102.0" y="402.0" width="36.0" height="36.0" fill="#0f766e" opacity="0.2" transform="rotate(45 120 420)"/>
<rect x="102.0" y="462.0" width="36.0" height="36.0" fill="#065f46" opacity="0.2" transform="rotate(45 120 480)"/>
<rect x="102.0" y="522.0" width="36.0" height="36.0" fill="#0f766e" opacity="0.2" transform="rotate(45 120 540)"/>
<rect x="162.0" y="-18.0" width="36.0" height="36.0" fill="#0f766e" opacity="0.2" transform="rotate(45 180 0)"/>
<rect x="162.0" y="42.0" width="36.0" height="36.0" fill="#065f46" opacity="0.2" transform="rotate(45 180 60)"/>
<rect x="162.0" y="102.0" width="36.0" height="36.0" fill="#0f766e" opacity="0.2" transform="rotate(45 180 120)"/>
<rect x="162.0" y="162.0" width="36.0" height="36.0" fill="#065f46" opacity="0.2" transform="rotate(45 180 180)"/>
<rect x="162.0" y="222.0" width="36.0" height="36.0" fill="#0f766e" opacity="0.2" transform="rotate(45 180 240)"/>
<rect x="162.0" y="282.0" width="36.0" height="36.0" fill="#065f46" opacity="0.2" transform="rotate(45 180 300)"/>
<rect x="162.0" y="342.0" width="36.0" height="36.0" fill="#0f766e" opacity="0.2" transform="rotate(45 180 360)"/>
<rect x="162.0" y="402.0" width="36.0" height="36.0" fill="#065f46" opacity="0.2" transform="rotate(45 180 420)"/>
<rect x="162.0" y="462.0" width="36.0" height="36.0" fill="#0f766e" opacity="0.2" transform="rotate(45 180 480)"/>
<rect x="162.0" y="522.0" width="36.0" height="36.0" fill="#065f46" opacity="0.2" transform="rotate(45 180 540)"/>
<rect x="222.0" y="-18.0" width="36.0" height="36.0" fill="#065f46" opacity="0.2" transform="rotate(45 240 0)"/>
<rect x="222.0" y="42.0" width="36.0" height="36.0" fill="#0f766e" opacity="0.2" transform="rotate(45 240 60)"/>
<rect x="222.0" y="102.0" width="36.0" height="36.0" fill="#065f46" opacity="0.2" transform="rotate(45 240 120)"/>
<rect x="222.0" y="162.0" width="36.0" height="36.0" fill="#0f766e" opacity="0.2" transform="rotate(45 240 180)"/>
<rect x="222.0" y="222.0" width="36.0" height="36.0" fill="#065f46" opacity="0.2" transform="rotate(45 240 240)"/>
<rect x="222.0" y="282.0" width="36.0" height="36.0" fill="#0f766e" opacity="0.2" transform="rotate(45 240 300)"/>
<rect x="222.0" y="342.0" width="36.0" height="36.0" fill="#065f46" opacity="0.2" transform="rotate(45 240 360)"/>
<rect x="222.0" y="402.0" width="36.0" height="36.0" fill="#0f766e" opacity="0.2" transform="rotate(45 240 420)"/>
<rect x="222.0" y="462.0" width="36.0" height="36.0" fill="#065f46" opacity="0.2" transform="rotate(45 240 480)"/>
<rect x="222.0" y="522.0" width="36.0" height="36.0" fill="#0f766e" opacity="0.2" transform="rotate(45 240 540)"/>
<rect x="282.0" y="-18.0" width="36.0" height="36.0" fill="#0f766e" opacity="0.2" transform="rotate(45 300 0)"/>
<rect x="282.0" y="42.0" width="36.0" height="36.0" fill="#065f46" opacity="0.2" transform="rotate(45 300 60)"/>
<rect x="282.0" y="102.0" width="36.0" height="36.0" fill="#0f766e" opacity="0.2" transform="rotate(45 300 120)"/>
<rect x="282.0" y="162.0" width="36.0" height="36.0" fill="#065f46" opacity="0.2" transform="rotate(45 300 180)"/>
<rect x="282.0" y="222.0" width="36.0" height="36.0" fill="#0f766e" opacity="0.2" transform="rotate(45 300 240)"/>
<rect x="282.0" y="282.0" width="36.0" height="36.0" fill="#065f46" opacity="0.2" transform="rotate(45 300 300)"/>
<rect x="282.0" y="342.0" width="36.0" height="36.0" fill="#0f766e" opacity="0.2" transform="rotate(45 300 360)"/>
<rect x="282.0" y="402.0" width="36.0" height="36.0" fill="#065f46" opacity="0.2" transform="rotate(45 300 420)"/>
<rect x="282.0" y="462.0" width="36.0" height="36.0" fill="#0f766e" opacity="0.2" transform="rotate(45 300 480)"/>
<rect x="282.0" y="522.0" width="36.0" height="36.0" fill="#065f46" opacity="0.2" transform="rotate(45 300 540)"/>
<rect x="342.0" y="-18.0" width="36.0" height="36.0" fill="#065f46" opacity="0.2" transform="rotate(45 360 0)"/>
<rect x="342.0" y="42.0" width="36.0" height="36.0" fill="#0f766e" opacity="0.2" transform="rotate(45 360 60)"/>
<rect x="342.0" y="102.0" width="36.0" height="36.0" fill="#065f46" opacity="0.2" transform="rotate(45 360 120)"/>
<rect x="342.0" y="162.0" width="36.0" height="36.0" fill="#0f766e" opacity="0.2" transform="rotate(45 360 180)"/>
<rect x="342.0" y="222.0" width="36.0" height="36.0" fill="#065f46" opacity="0.2" transform="rotate(45 360 240)"/>
<rect x="342.0" y="282.0" width="36.0" height="36.0" fill="#0f766e" opacity="0.2" transform="rotate(45 360 300)"/>
<rect x="342.0" y="342.0" width="36.0" height="36.0" fill="#065f46" opacity="0.2" transform="rotate(45 360 360)"/>
<rect x="342.0" y="402.0" width="36.0" height="36.0" fill="#0f766e" opacity="0.2" transform="rotate(45 360 420)"/>
<rect x="342.0" y="462.0" width="36.0" height="36.0" fill="#065f46" opacity="0.2" transform="rotate(45 360 480)"/>
<rect x="342.0" y="522.0" width="36.0" height="36.0" fill="#0f766e" opacity="0.2" transform="rotate(45 360 540)"/>
<rect x="402.0" y="-18.0" width="36.0" height="36.0" fill="#0f766e" opacity="0.2" transform="rotate(45 420 0)"/>
<rect x="402.0" y="42.0" width="36.0" height="36.0" fill="#065f46" opacity="0.2" transform="rotate(45 420 60)"/>
<rect x="402.0" y="102.0" width="36.0" height="36.0" fill="#0f766e" opacity="0.2" transform="rotate(45 420 120)"/>
<rect x="402.0" y="162.0" width="36.0" height="36.0" fill="#065f46" opacity="0.2" transform="rotate(45 420 180)"/>
<rect x="402.0" y="222.0" width="36.0" height="36.0" fill="#0f766e" opacity="0.2" transform="rotate(45 420 240)"/>
<rect x="402.0" y="282.0" width="36.0" height="36.0" fill="#065f46" opacity="0.2" transform="rotate(45 420 300)"/>
<rect x="402.0" y="342.0" width="36.0" height="36.0" fill="#0f766e" opacity="0.2" transform="rotate(45 420 360)"/>
<rect x="402.0" y="402.0" width="36.0" height="36.0" fill="#065f46" opacity="0.2" transform="rotate(45 420 420)"/>
<rect x="402.0" y="462.0" width="36.0" height="36.0" fill="#0f766e" opacity="0.2" transform="rotate(45 420 480)"/>
<rect x="402.0" y="522.0" width="36.0" height="36.0" fill="#065f46" opacity="0.2" transform="rotate(45 420 540)"/>
<rect x="462.0" y="-18.0" width="36.0" height="36.0" fill="#065f46" opacity="0.2" transform="rotate(45 480 0)"/>
<rect x="462.0" y="42.0" width="36.0" height="36.0" fill="#0f766e" opacity="0.2" transform="rotate(45 480 60)"/>
<rect x="462.0" y="102.0" width="36.0" height="36.0" fill="#065f46" opacity="0.2" transform="rotate(45 480 120)"/>
<rect x="462.0" y="162.0" width="36.0" height="36.0" fill="#0f766e" opacity="0.2" transform="rotate(45 480 180)"/>
<rect x="462.0" y="222.0" width="36.0" height="36.0" fill="#065f46" opacity="0.2" transform="rotate(45 480 240)"/>
<rect x="462.0" y="282.0" width="36.0" height="36.0" fill="#0f766e" opacity="0.2" transform="rotate(45 480 300)"/>
<rect x="462.0" y="342.0" width="36.0" height="36.0" fill="#065f46" opacity="0.2" transform="rotate(45 480 360)"/>
<rect x="462.0" y="402.0" width="36.0" height="36.0" fill="#0f766e" opacity="0.2" transform="rotate(45 480 420)"/>
<rect x="462.0" y="462.0" width="36.0" height="36.0" fill="#065f46" opacity="0.2" transform="rotate(45 480 480)"/>
<rect x="462.0" y="522.0" width="36.0" height="36.0" fill="#0f766e" opacity="0.2" transform="rotate(45 480 540)"/>
<rect x="522.0" y="-18.0" width="36.0" height="36.0" fill="#0f766e" opacity="0.2" transform="rotate(45 540 0)"/>
<rect x="522.0" y="42.0" width="36.0" height="36.0" fill="#065f46" opacity="0.2" transform="rotate(45 540 60)"/>
<rect x="522.0" y="102.0" width="36.0" height="36.0" fill="#0f766e" opacity="0.2" transform="rotate(45 540 120)"/>
<rect x="522.0" y="162.0" width="36.0" height="36.0" fill="#065f46" opacity="0.2" transform="rotate(45 540 180)"/>
<rect x="522.0" y="222.0" width="36.0" height="36.0" fill="#0f766e" opacity="0.2" transform="rotate(45 540 240)"/>
<rect x="522.0" y="282.0" width="36.0" height="36.0" fill="#065f46" opacity="0.2" transform="rotate(45 540 300)"/>
<rect x="522.0" y="342.0" width="36.0" height="36.0" fill="#0f766e" opacity="0.2" transform="rotate(45 540 360)"/>
<rect x="522.0" y="402.0" width="36.0" height="36.0" fill="#065f46" opacity="0.2" transform="rotate(45 540 420)"/>
<rect x="522.0" y="462.0" width="36.0" height="36.0" fill="#0f766e" opacity="0.2" transform="rotate(45 540 480)"/>
<rect x="522.0" y="522.0" width="36.0" height="36.0" fill="#065f46" opacity="0.2" transform="rotate(45 540 540)"/>
<rect x="582.0" y="-18.0" width="36.0" height="36.0" fill="#065f46" opacity="0.2" transform="rotate(45 600 0)"/>
<rect x="582.0" y="42.0" width="36.0" height="36.0" fill="#0f766e" opacity="0.2" transform="rotate(45 600 60)"/>
<rect x="582.0" y="102.0" width="36.0" height="36.0" fill="#065f46" opacity="0.2" transform="rotate(45 600 120)"/>
<rect x="582.0" y="162.0" width="36.0" height="36.0" fill="#0f766e" opacity="0.2" transform="rotate(45 600 180)"/>
<rect x="582.0" y="222.0" width="36.0" height="36.0" fill="#065f46" opacity="0.2" transform="rotate(45 600 240)"/>
<rect x="582.0" y="282.0" width="36.0" height="36.0" fill="#0f766e" opacity="0.2" transform="rotate(45 600 300)"/>
<rect x="582.0" y="342.0" width="36.0" height="36.0" fill="#065f46" opacity="0.2" transform="rotate(45 600 360)"/>
<rect x="582.0" y="402.0" width="36.0" height="36.0" fill="#0f766e" opacity="0.2" transform="rotate(45 600 420)"/>
<rect x="582.0" y="462.0" width="36.0" height="36.0" fill="#065f46" opacity="0.2" transform="rotate(45 600 480)"/>
<rect x="582.0" y="522.0" width="36.0" height="36.0" fill="#0f766e" opacity="0.2" transform="rotate(45 600 540)"/>
<rect x="642.0" y="-18.0" width="36.0" height="36.0" fill="#0f766e" opacity="0.2" transform="rotate(45 660 0)"/>
<rect x="642.0" y="42.0" width="36.0" height="36.0" fill="#065f46" opacity="0.2" transform="rotate(45 660 60)"/>
<rect x="642.0" y="102.0" width="36.0" height="36.0" fill="#0f766e" opacity="0.2" transform="rotate(45 660 120)"/>
<rect x="642.0" y="162.0" width="36.0" height="36.0" fill="#065f46" opacity="0.2" transform="rotate(45 660 180)"/>
<rect x="642.0" y="222.0" width="36.0" height="36.0" fill="#0f766e" opacity="0.2" transform="rotate(45 660 240)"/>
<rect x="642.0" y="282.0" width="36.0" height="36.0" fill="#065f46" opacity="0.2" transform="rotate(45 660 300)"/>
<rect x="642.0" y="342.0" width="36.0" height="36.0" fill="#0f766e" opacity="0.2" transform="rotate(45 660 360)"/>
<rect x="642.0" y="402.0" width="36.0" height="36.0" fill="#065f46" opacity="0.2" transform="rotate(45 660 420)"/>
<rect x="642.0" y="462.0" width="36.0" height="36.0" fill="#0f766e" opacity="0.2" transform="rotate(45 660 480)"/>
<rect x="642.0" y="522.0" width="36.0" height="36.0" fill="#065f46" opacity="0.2" transform="rotate(45 660 540)"/>
<rect x="702.0" y="-18.0" width="36.0" height="36.0" fill="#065f46" opacity="0.2" transform="rotate(45 720 0)"/>
<rect x="702.0" y="42.0" width="36.0" height="36.0" fill="#0f766e" opacity="0.2" transform="rotate(45 720 60)"/>
<rect x="702.0" y="102.0" width="36.0" height="36.0" fill="#065f46" opacity="0.2" transform="rotate(45 720 120)"/>
<rect x="702.0" y="162.0" width="36.0" height="36.0" fill="#0f766e" opacity="0.2" transform="rotate(45 720 180)"/>
<rect x="702.0" y="222.0" width="36.0" height="36.0" fill="#065f46" opacity="0.2" transform="rotate(45 720 240)"/>
<rect x="702.0" y="282.0" width="36.0" height="36.0" fill="#0f766e" opacity="0.2" transform="rotate(45 720 300)"/>
<rect x="702.0" y="342.0" width="36.0" height="36.0" fill="#065f46" opacity="0.2" transform="rotate(45 720 360)"/>
<rect x="702.0" y="402.0" width="36.0" height="36.0" fill="#0f766e" opacity="0.2" transform="rotate(45 720 420)"/>
<rect x="702.0" y="462.0" width="36.0" height="36.0" fill="#065f46" opacity="0.2" transform="rotate(45 720 480)"/>
<rect x="702.0" y="522.0" width="36.0" height="36.0" fill="#0f766e" opacity="0.2" transform="rotate(45 720 540)"/>
<rect x="762.0" y="-18.0" width="36.0" height="36.0" fill="#0f766e" opacity="0.2" transform="rotate(45 780 0)"/>
<rect x="762.0" y="42.0" width="36.0" height="36.0" fill="#065f46" opacity="0.2" transform="rotate(45 780 60)"/>
<rect x="762.0" y="102.0" width="36.0" height="36.0" fill="#0f766e" opacity="0.2" transform="rotate(45 780 120)"/>
<rect x="762.0" y="162.0" width="36.0" height="36.0" fill="#065f46" opacity="0.2" transform="rotate(45 780 180)"/>
<rect x="762.0" y="222.0" width="36.0" height="36.0" fill="#0f766e" opacity="0.2" transform="rotate(45 780 240)"/>
<rect x="762.0" y="282.0" width="36.0" height="36.0" fill="#065f46" opacity="0.2" transform="rotate(45 780 300)"/>
<rect x="762.0" y="342.0" width="36.0" height="36.0" fill="#0f766e" opacity="0.2" transform="rotate(45 780 360)"/>
<rect x="762.0" y="402.0" width="36.0" height="36.0" fill="#065f46" opacity="0.2" transform="rotate(45 780 420)"/>
<rect x="762.0" y="462.0" width="36.0" height="36.0" fill="#0f766e" opacity="0.2" transform="rotate(45 780 480)"/>
<rect x="762.0" y="522.0" width="36.0" height="36.0" fill="#065f46" opacity="0.2" transform="rotate(45 780 540)"/>
<rect x="822.0" y="-18.0" width="36.0" height="36.0" fill="#065f46" opacity="0.2" transform="rotate(45 840 0)"/>
<rect x="822.0" y="42.0" width="36.0" height="36.0" fill="#0f766e" opacity="0.2" transform="rotate(45 840 60)"/>
<rect x="822.0" y="102.0" width="36.0" height="36.0" fill="#065f46" opacity="0.2" transform="rotate(45 840 120)"/>
<rect x="822.0" y="162.0" width="36.0" height="36.0" fill="#0f766e" opacity="0.2" transform="rotate(45 840 180)"/>
<rect x="822.0" y="222.0" width="36.0" height="36.0" fill="#065f46" opacity="0.2" transform="rotate(45 840 240)"/>
<rect x="822.0" y="282.0" width="36.0" height="36.0" fill="#0f766e" opacity="0.2" transform="rotate(45 840 300)"/>
<rect x="822.0" y="342.0" width="36.0" height="36.0" fill="#065f46" opacity="0.2" transform="rotate(45 840 360)"/>
<rect x="822.0" y="402.0" width="36.0" height="36.0" fill="#0f766e" opacity="0.2" transform="rotate(45 840 420)"/>
<rect x="822.0" y="462.0" width="36.0" height="36.0" fill="#065f46" opacity="0.2" transform="rotate(45 840 480)"/>
<rect x="822.0" y="522.0" width="36.0" height="36.0" fill="#0f766e" opacity="0.2" transform="rotate(45 840 540)"/>
<rect x="882.0" y="-18.0" width="36.0" height="36.0" fill="#0f766e" opacity="0.2" transform="rotate(45 900 0)"/>
<rect x="882.0" y="42.0" width="36.0" height="36.0" fill="#065f46" opacity="0.2" transform="rotate(45 900 60)"/>
<rect x="882.0" y="102.0" width="36.0" height="36.0" fill="#0f766e" opacity="0.2" transform="rotate(45 900 120)"/>
<rect x="882.0" y="162.0" width="36.0" height="36.0" fill="#065f46" opacity="0.2" transform="rotate(45 900 180)"/>
<rect x="882.0" y="222.0" width="36.0" height="36.0" fill="#0f766e" opacity="0.2" transform="rotate(45 900 240)"/>
<rect x="882.0" y="282.0" width="36.0" height="36.0" fill="#065f46" opacity="0.2" transform="rotate(45 900 300)"/>
<rect x="882.0" y="342.0" width="36.0" height="36.0" fill="#0f766e" opacity="0.2" transform="rotate(45 900 360)"/>
<rect x="882.0" y="402.0" width="36.0" height="36.0" fill="#065f46" opacity="0.2" transform="rotate(45 900 420)"/>
<rect x="882.0" y="462.0" width="36.0" height="36.0" fill="#0f766e" opacity="0.2" transform="rotate(45 900 480)"/>
<rect x="882.0" y="522.0" width="36.0" height="36.0" fill="#065f46" opacity="0.2" transform="rotate(45 900 540)"/>
<rect x="942.0" y="-18.0" width="36.0" height="36.0" fill="#065f46" opacity="0.2" transform="rotate(45 960 0)"/>
<rect x="942.0" y="42.0" width="36.0" height="36.0" fill="#0f766e" opacity="0.2" transform="rotate(45 960 60)"/>
<rect x="942.0" y="102.0" width="36.0" height="36.0" fill="#065f46" opacity="0.2" transform="rotate(45 960 120)"/>
<rect x="942.0" y="162.0" width="36.0" height="36.0" fill="#0f766e" opacity="0.2" transform="rotate(45 960 180)"/>
<rect x="942.0" y="222.0" width="36.0" height="36.0" fill="#065f46" opacity="0.2" transform="rotate(45 960 240)"/>
<rect x="942.0" y="282.0" width="36.0" height="36.0" fill="#0f766e" opacity="0.2" transform="rotate(45 960 300)"/>
<rect x="942.0" y="342.0" width="36.0" height="36.0" fill="#065f46" opacity="0.2" transform="rotate(45 960 360)"/>
<rect x="942.0" y="402.0" width="36.0" height="36.0" fill="#0f766e" opacity="0.2" transform="rotate(45 960 420)"/>
<rect x="942.0" y="462.0" width="36.0" height="36.0" fill="#065f46" opacity="0.2" transform="rotate(45 960 480)"/>
<rect x="942.0" y="522.0" width="36.0" height="36.0" fill="#0f766e" opacity="0.2" transform="rotate(45 960 540)"/>
<rect x="1002.0" y="-18.0" width="36.0" height="36.0" fill="#0f766e" opacity="0.2" transform="rotate(45 1020 0)"/>
<rect x="1002.0" y="42.0" width="36.0" height="36.0" fill="#065f46" opacity="0.2" transform="rotate(45 1020 60)"/>
<rect x="1002.0" y="102.0" width="36.0" height="36.0" fill="#0f766e" opacity="0.2" transform="rotate(45 1020 120)"/>
<rect x="1002.0" y="162.0" width="36.0" height="36.0" fill="#065f46" opacity="0.2" transform="rotate(45 1020 180)"/>
<rect x="1002.0" y="222.0" width="36.0" height="36.0" fill="#0f766e" opacity="0.2" transform="rotate(45 1020 240)"/>
<rect x="1002.0" y="282.0" width="36.0" height="36.0" fill="#065f46" opacity="0.2" transform="rotate(45 1020 300)"/>
<rect x="1002.0" y="342.0" width="36.0" height="36.0" fill="#0f766e" opacity="0.2" transform="rotate(45 1020 360)"/>
<rect x="1002.0" y="402.0" width="36.0" height="36.0" fill="#065f46" opacity="0.2" transform="rotate(45 1020 420)"/>
<rect x="1002.0" y="462.0" width="36.0" height="36.0" fill="#0f766e" opacity="0.2" transform="rotate(45 1020 480)"/>
<rect x="1002.0" y="522.0" width="36.0" height="36.0" fill="#065f46" opacity="0.2" transform="rotate(45 1020 540)"/>
<rect x="1062.0" y="-18.0" width="36.0" height="36.0" fill="#065f46" opacity="0.2" transform="rotate(45 1080 0)"/>
<rect x="1062.0" y="42.0" width="36.0" height="36.0" fill="#0f766e" opacity="0.2" transform="rotate(45 1080 60)"/>
<rect x="1062.0" y="102.0" width="36.0" height="36.0" fill="#065f46" opacity="0.2" transform="rotate(45 1080 120)"/>
<rect x="1062.0" y="162.0" width="36.0" height="36.0" fill="#0f766e" opacity="0.2" transform="rotate(45 1080 180)"/>
<rect x="1062.0" y="222.0" width="36.0" height="36.0" fill="#065f46" opacity="0.2" transform="rotate(45 1080 240)"/>
<rect x="1062.0" y="282.0" width="36.0" height="36.0" fill="#0f766e" opacity="0.2" transform="rotate(45 1080 300)"/>
<rect x="1062.0" y="342.0" width="36.0" height="36.0" fill="#065f46" opacity="0.2" transform="rotate(45 1080 360)"/>
<rect x="1062.0" y="402.0" width="36.0" height="36.0" fill="#0f766e" opacity="0.2" transform="rotate(45 1080 420)"/>
<rect x="1062.0" y="462.0" width="36.0" height="36.0" fill="#065f46" opacity="0.2" transform="rotate(45 1080 480)"/>
<rect x="1062.0" y="522.0" width="36.0" height="36.0" fill="#0f766e" opacity="0.2" transform="rotate(45 1080 540)"/>
<rect x="1122.0" y="-18.0" width="36.0" height="36.0" fill="#0f766e" opacity="0.2" transform="rotate(45 1140 0)"/>
<rect x="1122.0" y="42.0" width="36.0" height="36.0" fill="#065f46" opacity="0.2" transform="rotate(45 1140 60)"/>
<rect x="1122.0" y="102.0" width="36.0" height="36.0" fill="#0f766e" opacity="0.2" transform="rotate(45 1140 120)"/>
<rect x="1122.0" y="162.0" width="36.0" height="36.0" fill="#065f46" opacity="0.2" transform="rotate(45 1140 180)"/>
<rect x="1122.0" y="222.0" width="36.0" height="36.0" fill="#0f766e" opacity="0.2" transform="rotate(45 1140 240)"/>
<rect x="1122.0" y="282.0" width="36.0" height="36.0" fill="#065f46" opacity="0.2" transform="rotate(45 1140 300)"/>
<rect x="1122.0" y="342.0" width="36.0" height="36.0" fill="#0f766e" opacity="0.2" transform="rotate(45 1140 360)"/>
<rect x="1122.0" y="402.0" width="36.0" height="36.0" fill="#065f46" opacity="0.2" transform="rotate(45 1140 420)"/>
<rect x="1122.0" y="462.0" width="36.0" height="36.0" fill="#0f766e" opacity="0.2" transform="rotate(45 1140 480)"/>
<rect x="1122.0" y="522.0" width="36.0" height="36.0" fill="#065f46" opacity="0.2" transform="rotate(45 1140 540)"/>
<rect x="1182.0" y="-18.0" width="36.0" height="36.0" fill="#065f46" opacity="0.2" transform="rotate(45 1200 0)"/>
<rect x="1182.0" y="42.0" width="36.0" height="36.0" fill="#0f766e" opacity="0.2" transform="rotate(45 1200 60)"/>
<rect x="1182.0" y="102.0" width="36.0" height="36.0" fill="#065f46" opacity="0.2" transform="rotate(45 1200 120)"/>
<rect x="1182.0" y="162.0" width="36.0" height="36.0" fill="#0f766e" opacity="0.2" transform="rotate(45 1200 180)"/>
<rect x="1182.0" y="222.0" width="36.0" height="36.0" fill="#065f46" opacity="0.2" transform="rotate(45 1200 240)"/>
<rect x="1182.0" y="282.0" width="36.0" height="36.0" fill="#0f766e" opacity="0.2" transform="rotate(45 1200 300)"/>
<rect x="1182.0" y="342.0" width="36.0" height="36.0" fill="#065f46" opacity="0.2" transform="rotate(45 1200 360)"/>
<rect x="1182.0" y="402.0" width="36.0" height="36.0" fill="#0f766e" opacity="0.2" transform="rotate(45 1200 420)"/>
<rect x="1182.0" y="462.0" width="36.0" height="36.0" fill="#065f46" opacity="0.2" transform="rotate(45 1200 480)"/>
<rect x="1182.0" y="522.0" width="36.0" height="36.0" fill="#0f766e" opacity="0.2" transform="rotate(45 1200 540)"/>
<rect x="1242.0" y="-18.0" width="36.0" height="36.0" fill="#0f766e" opacity="0.2" transform="rotate(45 1260 0)"/>
<rect x="1242.0" y="42.0" width="36.0" height="36.0" fill="#065f46" opacity="0.2" transform="rotate(45 1260 60)"/>
<rect x="1242.0" y="102.0" width="36.0" height="36.0" fill="#0f766e" opacity="0.2" transform="rotate(45 1260 120)"/>
<rect x="1242.0" y="162.0" width="36.0" height="36.0" fill="#065f46" opacity="0.2" transform="rotate(45 1260 180)"/>
<rect x="1242.0" y="222.0" width="36.0" height="36.0" fill="#0f766e" opacity="0.2" transform="rotate(45 1260 240)"/>
<rect x="1242.0" y="282.0" width="36.0" height="36.0" fill="#065f46" opacity="0.2" transform="rotate(45 1260 300)"/>
<rect x="1242.0" y="342.0" width="36.0" height="36.0" fill="#0f766e" opacity="0.2" transform="rotate(45 1260 360)"/>
<rect x="1242.0" y="402.0" width="36.0" height="36.0" fill="#065f46" opacity="0.2" transform="rotate(45 1260 420)"/>
<rect x="1242.0" y="462.0" width="36.0" height="36.0" fill="#0f766e" opacity="0.2" transform="rotate(45 1260 480)"/>
<rect x="1242.0" y="522.0" width="36.0" height="36.0" fill="#065f46" opacity="0.2" transform="rotate(45 1260 540)"/>
<rect x="1302.0" y="-18.0" width="36.0" height="36.0" fill="#065f46" opacity="0.2" transform="rotate(45 1320 0)"/>
<rect x="1302.0" y="42.0" width="36.0" height="36.0" fill="#0f766e" opacity="0.2" transform="rotate(45 1320 60)"/>
<rect x="1302.0" y="102.0" width="36.0" height="36.0" fill="#065f46" opacity="0.2" transform="rotate(45 1320 120)"/>
<rect x="1302.0" y="162.0" width="36.0" height="36.0" fill="#0f766e" opacity="0.2" transform="rotate(45 1320 180)"/>
<rect x="1302.0" y="222.0" width="36.0" height="36.0" fill="#065f46" opacity="0.2" transform="rotate(45 1320 240)"/>
<rect x="1302.0" y="282.0" width="36.0" height="36.0" fill="#0f766e" opacity="0.2" transform="rotate(45 1320 300)"/>
<rect x="1302.0" y="342.0" width="36.0" height="36.0" fill="#065f46" opacity="0.2" transform="rotate(45 1320 360)"/>
<rect x="1302.0" y="402.0" width="36.0" height="36.0" fill="#0f766e" opacity="0.2" transform="rotate(45 1320 420)"/>
<rect x="1302.0" y="462.0" width="36.0" height="36.0" fill="#065f46" opacity="0.2" transform="rotate(45 1320 480)"/>
<rect x="1302.0" y="522.0" width="36.0" height="36.0" fill="#0f766e" opacity="0.2" transform="rotate(45 1320 540)"/>
<rect x="1362.0" y="-18.0" width="36.0" height="36.0" fill="#0f766e" opacity="0.2" transform="rotate(45 1380 0)"/>
<rect x="1362.0" y="42.0" width="36.0" height="36.0" fill="#065f46" opacity="0.2" transform="rotate(45 1380 60)"/>
<rect x="1362.0" y="102.0" width="36.0" height="36.0" fill="#0f766e" opacity="0.2" transform="rotate(45 1380 120)"/>
<rect x="1362.0" y="162.0" width="36.0" height="36.0" fill="#065f46" opacity="0.2" transform="rotate(45 1380 180)"/>
<rect x="1362.0" y="222.0" width="36.0" height="36.0" fill="#0f766e" opacity="0.2" transform="rotate(45 1380 240)"/>
<rect x="1362.0" y="282.0" width="36.0" height="36.0" fill="#065f46" opacity="0.2" transform="rotate(45 1380 300)"/>
<rect x="1362.0" y="342.0" width="36.0" height="36.0" fill="#0f766e" opacity="0.2" transform="rotate(45 1380 360)"/>
<rect x="1362.0" y="402.0" width="36.0" height="36.0" fill="#065f46" opacity="0.2" transform="rotate(45 1380 420)"/>
<rect x="1362.0" y="462.0" width="36.0" height="36.0" fill="#0f766e" opacity="0.2" transform="rotate(45 1380 480)"/>
<rect x="1362.0" y="522.0" width="36.0" height="36.0" fill="#065f46" opacity="0.2" transform="rotate(45 1380 540)"/>
<rect x="1422.0" y="-18.0" width="36.0" height="36.0" fill="#065f46" opacity="0.2" transform="rotate(45 1440 0)"/>
<rect x="1422.0" y="42.0" width="36.0" height="36.0" fill="#0f766e" opacity="0.2" transform="rotate(45 1440 60)"/>
<rect x="1422.0" y="102.0" width="36.0" height="36.0" fill="#065f46" opacity="0.2" transform="rotate(45 1440 120)"/>
<rect x="1422.0" y="162.0" width="36.0" height="36.0" fill="#0f766e" opacity="0.2" transform="rotate(45 1440 180)"/>
<rect x="1422.0" y="222.0" width="36.0" height="36.0" fill="#065f46" opacity="0.2" transform="rotate(45 1440 240)"/>
<rect x="1422.0" y="282.0" width="36.0" height="36.0" fill="#0f766e" opacity="0.2" transform="rotate(45 1440 300)"/>
<rect x="1422.0" y="342.0" width="36.0" height="36.0" fill="#065f46" opacity="0.2" transform="rotate(45 1440 360)"/>
<rect x="1422.0" y="402.0" width="36.0" height="36.0" fill="#0f766e" opacity="0.2" transform="rotate(45 1440 420)"/>
<rect x="1422.0" y="462.0" width="36.0" height="36.0" fill="#065f46" opacity="0.2" transform="rotate(45 1440 480)"/>
<rect x="1422.0" y="522.0" width="36.0" height="36.0" fill="#0f766e" opacity="0.2" transform="rotate(45 1440 540)"/>
<rect x="1482.0" y="-18.0" width="36.0" height="36.0" fill="#0f766e" opacity="0.2" transform="rotate(45 1500 0)"/>
<rect x="1482.0" y="42.0" width="36.0" height="36.0" fill="#065f46" opacity="0.2" transform="rotate(45 1500 60)"/>
<rect x="1482.0" y="102.0" width="36.0" height="36.0" fill="#0f766e" opacity="0.2" transform="rotate(45 1500 120)"/>
<rect x="1482.0" y="162.0" width="36.0" height="36.0" fill="#065f46" opacity="0.2" transform="rotate(45 1500 180)"/>
<rect x="1482.0" y="222.0" width="36.0" height="36.0" fill="#0f766e" opacity="0.2" transform="rotate(45 1500 240)"/>
<rect x="1482.0" y="282.0" width="36.0" height="36.0" fill="#065f46" opacity="0.2" transform="rotate(45 1500 300)"/>
<rect x="1482.0" y="342.0" width="36.0" height="36.0" fill="#0f766e" opacity="0.2" transform="rotate(45 1500 360)"/>
<rect x="1482.0" y="402.0" width="36.0" height="36.0" fill="#065f46" opacity="0.2" transform="rotate(45 1500 420)"/>
<rect x="1482.0" y="462.0" width="36.0" height="36.0" fill="#0f766e" opacity="0.2" transform="rotate(45 1500 480)"/>
<rect x="1482.0" y="522.0" width="36.0" height="36.0" fill="#065f46" opacity="0.2" transform="rotate(45 1500 540)"/><rect x="730.0" y="150.0" width="40" height="200" fill="#065f46" rx="6"/><text x="750.0" y="420.0" font-family="Georgia,serif" font-size="42" font-weight="700" fill="#1c1917" text-anchor="middle">MODUL 1</text>
</svg>