<?xml version="1.0" encoding="UTF-8"?>
<svg xmlns="http://www.w3.org/2000/svg" viewBox="0 0 1500 500" width="1500" height="500">
<defs>
    <linearGradient id="g6" x1="0" y1="0" x2="1" y2="1">
      <stop offset="0" stop-color="#a7f3d0"/>
      <stop offset="1" stop-color="#6ee7b7"/>
    </linearGradient>
  </defs>
  <rect width="1500" height="500" fill="url(#g6)"/><polygon points="205.0,180.0 192.7,185.3 197.7,197.7 185.3,192.7 180.0,205.0 174.7,192.7 162.3,197.7 167.3,185.3 155.0,180.0 167.3,174.7 162.3,162.3 174.7,167.3 180.0,155.0 185.3,167.3 197.7,162.3 192.7,174.7" fill="#065f46" opacity="0.12" stroke="none" stroke-width="0"/>
<polygon points="205.0,360.0 192.7,365.3 197.7,377.7 185.3,372.7 180.0,385.0 174.7,372.7 162.3,377.7 167.3,365.3 155.0,360.0 167.3,354.7 162.3,342.3 174.7,347.3 180.0,335.0 185.3,347.3 197.7,342.3 192.7,354.7" fill="#065f46" opacity="0.12" stroke="none" stroke-width="0"/>
<polygon points="385.0,180.0 372.7,185.3 377.7,197.7 365.3,192.7 360.0,205.0 354.7,192.7 342.3,197.7 347.3,185.3 335.0,180.0 347.3,174.7 342.3,162.3 354.7,167.3 360.0,155.0 365.3,167.3 377.7,162.3 372.7,174.7" fill="#065f46" opacity="0.12" stroke="none" stroke-width="0"/>
<polygon points="385.0,360.0 372.7,365.3 377.7,377.7 365.3,372.7 360.0,385.0 354.7,372.7 342.3,377.7 347.3,365.3 335.0,360.0 347.3,354.7 342.3,342.3 354.7,347.3 360.0,335.0 365.3,347.3 377.7,342.3 372.7,354.7" fill="#065f46" opacity="0.12" stroke="none" stroke-width="0"/>
<polygon points="565.0,180.0 552.7,185.3 557.7,197.7 545.3,192.7 540.0,205.0 534.7,192.7 522.3,197.7 527.3,185.3 515.0,180.0 527.3,174.7 522.3,162.3 534.7,167.3 540.0,155.0 545.3,167.3 557.7,162.3 552.7,174.7" fill="#065f46" opacity="0.12" stroke="none" stroke-width="0"/>
<polygon points="565.0,360.0 552.7,365.3 557.7,377.7 545.3,372.7 540.0,385.0 534.7,372.7 522.3,377.7 527.3,365.3 515.0,360.0 527.3,354.7 522.3,342.3 534.7,347.3 540.0,335.0 545.3,347.3 557.7,342.3 552.7,354.7" fill="#065f46" opacity="0.12" stroke="none" stroke-width="0"/>
<polygon points="745.0,180.0 732.7,185.3 737.7,197.7 725.3,192.7 720.0,205.0 714.7,192.7 702.3,197.7 707.3,185.3 695.0,180.0 707.3,174.7 702.3,162.3 714.7,167.3 720.0,155.0 725.3,167.3 737.7,162.3 732.7,174.7" fill="#065f46" opacity="0.12" stroke="none" stroke-width="0"/>
<polygon points="745.0,360.0 732.7,365.3 737.7,377.7 725.3,372.7 720.0,385.0 714.7,372.7 702.3,377.7 707.3,365.3 695.0,360.0 707.3,354.7 702.3,342.3 714.7,347.3 720.0,335.0 725.3,347.3 737.7,342.3 732.7,354.7" fill="#065f46" opacity="0.12" stroke="none" stroke-width="0"/>
<polygon points="925.0,180.0 912.7,185.3 917.7,197.7 905.3,192.7 900.0,205.0 894.7,192.7 882.3,197.7 887.3,185.3 875.0,180.0 887.3,174.7 882.3,162.3 894.7,167.3 900.0,155.0 905.3,167.3 917.7,162.3 912.7,174.7" fill="#065f46" opacity="0.12" stroke="none" stroke-width="0"/>
<polygon points="925.0,360.0 912.7,365.3 917.7,377.7 905.3,372.7 900.0,385.0 894.7,372.7 882.3,377.7 887.3,365.3 875.0,360.0 887.3,354.7 882.3,342.3 894.7,347.3 900.0,335.0 905.3,347.3 917.7,342.3 912.7,354.7" fill="#065f46" opacity="0.12" stroke="none" stroke-width="0"/>
<polygon points="1105.0,180.0 1092.7,185.3 1097.7,197.7 1085.3,192.7 1080.0,205.0 1074.7,192.7 1062.3,197.7 1067.3,185.3 1055.0,180.0 1067.3,174.7 1062.3,162.3 1074.7,167.3 1080.0,155.0 1085.3,167.3 1097.7,162.3 1092.7,174.7" fill="#065f46" opacity="0.12" stroke="none" stroke-width="0"/>
<polygon points="1105.0,360.0 1092.7,365.3 1097.7,377.7 1085.3,372.7 1080.0,385.0 1074.7,372.7 1062.3,377.7 1067.3,365.3 1055.0,360.0 1067.3,354.7 1062.3,342.3 1074.7,347.3 1080.0,335.0 1085.3,347.3 1097.7,342.3 1092.7,354.7" fill="#065f46" opacity="0.12" stroke="none" stroke-width="0"/>
<polygon points="1285.0,180.0 1272.7,185.3 1277.7,197.7 1265.3,192.7 1260.0,205.0 1254.7,192.7 1242.3,197.7 1247.3,185.3 1235.0,180.0 1247.3,174.7 1242.3,162.3 1254.7,167.3 1260.0,155.0 1265.3,167.3 1277.7,162.3 1272.7,174.7" fill="#065f46" opacity="0.12" stroke="none" stroke-width="0"/>
<polygon points="1285.0,360.0 1272.7,365.3 1277.7,377.7 1265.3,372.7 1260.0,385.0 1254.7,372.7 1242.3,377.7 1247.3,365.3 1235.0,360.0 1247.3,354.7 1242.3,342.3 1254.7,347.3 1260.0,335.0 1265.3,347.3 1277.7,342.3 1272.7,354.7" fill="#065f46" opacity="0.12" stroke="none" stroke-width="0"/>
<polygon points="1465.0,180.0 1452.7,185.3 1457.7,197.7 1445.3,192.7 1440.0,205.0 1434.7,192.7 1422.3,197.7 1427.3,185.3 1415.0,180.0 1427.3,174.7 1422.3,162.3 1434.7,167.3 1440.0,155.0 1445.3,167.3 1457.7,162.3 1452.7,174.7" fill="#065f46" opacity="0.12" stroke="none" stroke-width="0"/>
<polygon points="1465.0,360.0 1452.7,365.3 1457.7,377.7 1445.3,372.7 1440.0,385.0 1434.7,372.7 1422.3,377.7 1427.3,365.3 1415.0,360.0 1427.3,354.7 1422.3,342.3 1434.7,347.3 1440.0,335.0 1445.3,347.3 1457.7,342.3 1452.7,354.7" fill="#065f46" opacity="0.12" stroke="none" stroke-width="0"/><circle cx="710.0" cy="230.0" r="80" fill="#f59e0b" opacity="0.7"/><circle cx="790.0" cy="270.0" r="80" fill="#065f46" opacity="0.7"/><text x="750.0" y="400.0" font-family="Georgia,serif" font-size="42" font-weight="700" fill="#064e3b" text-anchor="middle">MODUL 2</text>
</svg>