<?xml version="1.0" encoding="UTF-8"?>
<svg xmlns="http://www.w3.org/2000/svg" viewBox="0 0 1500 500" width="1500" height="500">
<defs>
    <linearGradient id="g8" x1="0" y1="0" x2="1" y2="1">
      <stop offset="0" stop-color="#f0fdf4"/>
      <stop offset="1" stop-color="#dcfce7"/>
    </linearGradient>
  </defs>
  <rect width="1500" height="500" fill="url(#g8)"/><rect x="50" y="50" width="60" height="60" fill="#065f46" opacity="0.15" transform="rotate(45 80 80)"/><rect x="55" y="55" width="50" height="50" fill="#fbbf24" opacity="0.35"/><rect x="50" y="180" width="60" height="60" fill="#065f46" opacity="0.15" transform="rotate(45 80 210)"/><rect x="55" y="185" width="50" height="50" fill="#fbbf24" opacity="0.35"/><rect x="50" y="310" width="60" height="60" fill="#065f46" opacity="0.15" transform="rotate(45 80 340)"/><rect x="55" y="315" width="50" height="50" fill="#fbbf24" opacity="0.35"/><rect x="50" y="440" width="60" height="60" fill="#065f46" opacity="0.15" transform="rotate(45 80 470)"/><rect x="55" y="445" width="50" height="50" fill="#fbbf24" opacity="0.35"/><rect x="180" y="50" width="60" height="60" fill="#065f46" opacity="0.15" transform="rotate(45 210 80)"/><rect x="185" y="55" width="50" height="50" fill="#fbbf24" opacity="0.35"/><rect x="180" y="180" width="60" height="60" fill="#065f46" opacity="0.15" transform="rotate(45 210 210)"/><rect x="185" y="185" width="50" height="50" fill="#fbbf24" opacity="0.35"/><rect x="180" y="310" width="60" height="60" fill="#065f46" opacity="0.15" transform="rotate(45 210 340)"/><rect x="185" y="315" width="50" height="50" fill="#fbbf24" opacity="0.35"/><rect x="180" y="440" width="60" height="60" fill="#065f46" opacity="0.15" transform="rotate(45 210 470)"/><rect x="185" y="445" width="50" height="50" fill="#fbbf24" opacity="0.35"/><rect x="310" y="50" width="60" height="60" fill="#065f46" opacity="0.15" transform="rotate(45 340 80)"/><rect x="315" y="55" width="50" height="50" fill="#fbbf24" opacity="0.35"/><rect x="310" y="180" width="60" height="60" fill="#065f46" opacity="0.15" transform="rotate(45 340 210)"/><rect x="315" y="185" width="50" height="50" fill="#fbbf24" opacity="0.35"/><rect x="310" y="310" width="60" height="60" fill="#065f46" opacity="0.15" transform="rotate(45 340 340)"/><rect x="315" y="315" width="50" height="50" fill="#fbbf24" opacity="0.35"/><rect x="310" y="440" width="60" height="60" fill="#065f46" opacity="0.15" transform="rotate(45 340 470)"/><rect x="315" y="445" width="50" height="50" fill="#fbbf24" opacity="0.35"/><rect x="440" y="50" width="60" height="60" fill="#065f46" opacity="0.15" transform="rotate(45 470 80)"/><rect x="445" y="55" width="50" height="50" fill="#fbbf24" opacity="0.35"/><rect x="440" y="180" width="60" height="60" fill="#065f46" opacity="0.15" transform="rotate(45 470 210)"/><rect x="445" y="185" width="50" height="50" fill="#fbbf24" opacity="0.35"/><rect x="440" y="310" width="60" height="60" fill="#065f46" opacity="0.15" transform="rotate(45 470 340)"/><rect x="445" y="315" width="50" height="50" fill="#fbbf24" opacity="0.35"/><rect x="440" y="440" width="60" height="60" fill="#065f46" opacity="0.15" transform="rotate(45 470 470)"/><rect x="445" y="445" width="50" height="50" fill="#fbbf24" opacity="0.35"/><rect x="570" y="50" width="60" height="60" fill="#065f46" opacity="0.15" transform="rotate(45 600 80)"/><rect x="575" y="55" width="50" height="50" fill="#fbbf24" opacity="0.35"/><rect x="570" y="180" width="60" height="60" fill="#065f46" opacity="0.15" transform="rotate(45 600 210)"/><rect x="575" y="185" width="50" height="50" fill="#fbbf24" opacity="0.35"/><rect x="570" y="310" width="60" height="60" fill="#065f46" opacity="0.15" transform="rotate(45 600 340)"/><rect x="575" y="315" width="50" height="50" fill="#fbbf24" opacity="0.35"/><rect x="570" y="440" width="60" height="60" fill="#065f46" opacity="0.15" transform="rotate(45 600 470)"/><rect x="575" y="445" width="50" height="50" fill="#fbbf24" opacity="0.35"/><rect x="700" y="50" width="60" height="60" fill="#065f46" opacity="0.15" transform="rotate(45 730 80)"/><rect x="705" y="55" width="50" height="50" fill="#fbbf24" opacity="0.35"/><rect x="700" y="180" width="60" height="60" fill="#065f46" opacity="0.15" transform="rotate(45 730 210)"/><rect x="705" y="185" width="50" height="50" fill="#fbbf24" opacity="0.35"/><rect x="700" y="310" width="60" height="60" fill="#065f46" opacity="0.15" transform="rotate(45 730 340)"/><rect x="705" y="315" width="50" height="50" fill="#fbbf24" opacity="0.35"/><rect x="700" y="440" width="60" height="60" fill="#065f46" opacity="0.15" transform="rotate(45 730 470)"/><rect x="705" y="445" width="50" height="50" fill="#fbbf24" opacity="0.35"/><rect x="830" y="50" width="60" height="60" fill="#065f46" opacity="0.15" transform="rotate(45 860 80)"/><rect x="835" y="55" width="50" height="50" fill="#fbbf24" opacity="0.35"/><rect x="830" y="180" width="60" height="60" fill="#065f46" opacity="0.15" transform="rotate(45 860 210)"/><rect x="835" y="185" width="50" height="50" fill="#fbbf24" opacity="0.35"/><rect x="830" y="310" width="60" height="60" fill="#065f46" opacity="0.15" transform="rotate(45 860 340)"/><rect x="835" y="315" width="50" height="50" fill="#fbbf24" opacity="0.35"/><rect x="830" y="440" width="60" height="60" fill="#065f46" opacity="0.15" transform="rotate(45 860 470)"/><rect x="835" y="445" width="50" height="50" fill="#fbbf24" opacity="0.35"/><rect x="960" y="50" width="60" height="60" fill="#065f46" opacity="0.15" transform="rotate(45 990 80)"/><rect x="965" y="55" width="50" height="50" fill="#fbbf24" opacity="0.35"/><rect x="960" y="180" width="60" height="60" fill="#065f46" opacity="0.15" transform="rotate(45 990 210)"/><rect x="965" y="185" width="50" height="50" fill="#fbbf24" opacity="0.35"/><rect x="960" y="310" width="60" height="60" fill="#065f46" opacity="0.15" transform="rotate(45 990 340)"/><rect x="965" y="315" width="50" height="50" fill="#fbbf24" opacity="0.35"/><rect x="960" y="440" width="60" height="60" fill="#065f46" opacity="0.15" transform="rotate(45 990 470)"/><rect x="965" y="445" width="50" height="50" fill="#fbbf24" opacity="0.35"/><rect x="1090" y="50" width="60" height="60" fill="#065f46" opacity="0.15" transform="rotate(45 1120 80)"/><rect x="1095" y="55" width="50" height="50" fill="#fbbf24" opacity="0.35"/><rect x="1090" y="180" width="60" height="60" fill="#065f46" opacity="0.15" transform="rotate(45 1120 210)"/><rect x="1095" y="185" width="50" height="50" fill="#fbbf24" opacity="0.35"/><rect x="1090" y="310" width="60" height="60" fill="#065f46" opacity="0.15" transform="rotate(45 1120 340)"/><rect x="1095" y="315" width="50" height="50" fill="#fbbf24" opacity="0.35"/><rect x="1090" y="440" width="60" height="60" fill="#065f46" opacity="0.15" transform="rotate(45 1120 470)"/><rect x="1095" y="445" width="50" height="50" fill="#fbbf24" opacity="0.35"/><rect x="1220" y="50" width="60" height="60" fill="#065f46" opacity="0.15" transform="rotate(45 1250 80)"/><rect x="1225" y="55" width="50" height="50" fill="#fbbf24" opacity="0.35"/><rect x="1220" y="180" width="60" height="60" fill="#065f46" opacity="0.15" transform="rotate(45 1250 210)"/><rect x="1225" y="185" width="50" height="50" fill="#fbbf24" opacity="0.35"/><rect x="1220" y="310" width="60" height="60" fill="#065f46" opacity="0.15" transform="rotate(45 1250 340)"/><rect x="1225" y="315" width="50" height="50" fill="#fbbf24" opacity="0.35"/><rect x="1220" y="440" width="60" height="60" fill="#065f46" opacity="0.15" transform="rotate(45 1250 470)"/><rect x="1225" y="445" width="50" height="50" fill="#fbbf24" opacity="0.35"/><rect x="1350" y="50" width="60" height="60" fill="#065f46" opacity="0.15" transform="rotate(45 1380 80)"/><rect x="1355" y="55" width="50" height="50" fill="#fbbf24" opacity="0.35"/><rect x="1350" y="180" width="60" height="60" fill="#065f46" opacity="0.15" transform="rotate(45 1380 210)"/><rect x="1355" y="185" width="50" height="50" fill="#fbbf24" opacity="0.35"/><rect x="1350" y="310" width="60" height="60" fill="#065f46" opacity="0.15" transform="rotate(45 1380 340)"/><rect x="1355" y="315" width="50" height="50" fill="#fbbf24" opacity="0.35"/><rect x="1350" y="440" width="60" height="60" fill="#065f46" opacity="0.15" transform="rotate(45 1380 470)"/><rect x="1355" y="445" width="50" height="50" fill="#fbbf24" opacity="0.35"/><text x="750.0" y="250.0" font-family="Georgia,serif" font-size="130" font-weight="800" fill="#065f46" text-anchor="middle" opacity="0.9">IV</text><text x="750.0" y="330.0" font-family="Georgia,serif" font-size="34" font-weight="700" fill="#064e3b" text-anchor="middle">MODUL 4</text>
</svg>