<?xml version="1.0" encoding="UTF-8"?>
<svg xmlns="http://www.w3.org/2000/svg" viewBox="0 0 1500 500" width="1500" height="500">
<defs>
    <linearGradient id="g9" x1="0" y1="0" x2="1" y2="1">
      <stop offset="0" stop-color="#134e4a"/>
      <stop offset="1" stop-color="#0f766e"/>
    </linearGradient>
  </defs>
  <rect width="1500" height="500" fill="url(#g9)"/><polygon points="182.0,160.0 171.2,164.6 175.6,175.6 164.6,171.2 160.0,182.0 155.4,171.2 144.4,175.6 148.8,164.6 138.0,160.0 148.8,155.4 144.4,144.4 155.4,148.8 160.0,138.0 164.6,148.8 175.6,144.4 171.2,155.4" fill="#fef3c7" opacity="0.2" stroke="none" stroke-width="0"/>
<polygon points="182.0,320.0 171.2,324.6 175.6,335.6 164.6,331.2 160.0,342.0 155.4,331.2 144.4,335.6 148.8,324.6 138.0,320.0 148.8,315.4 144.4,304.4 155.4,308.8 160.0,298.0 164.6,308.8 175.6,304.4 171.2,315.4" fill="#fef3c7" opacity="0.2" stroke="none" stroke-width="0"/>
<polygon points="182.0,480.0 171.2,484.6 175.6,495.6 164.6,491.2 160.0,502.0 155.4,491.2 144.4,495.6 148.8,484.6 138.0,480.0 148.8,475.4 144.4,464.4 155.4,468.8 160.0,458.0 164.6,468.8 175.6,464.4 171.2,475.4" fill="#fef3c7" opacity="0.2" stroke="none" stroke-width="0"/>
<polygon points="342.0,160.0 331.2,164.6 335.6,175.6 324.6,171.2 320.0,182.0 315.4,171.2 304.4,175.6 308.8,164.6 298.0,160.0 308.8,155.4 304.4,144.4 315.4,148.8 320.0,138.0 324.6,148.8 335.6,144.4 331.2,155.4" fill="#fef3c7" opacity="0.2" stroke="none" stroke-width="0"/>
<polygon points="342.0,320.0 331.2,324.6 335.6,335.6 324.6,331.2 320.0,342.0 315.4,331.2 304.4,335.6 308.8,324.6 298.0,320.0 308.8,315.4 304.4,304.4 315.4,308.8 320.0,298.0 324.6,308.8 335.6,304.4 331.2,315.4" fill="#fef3c7" opacity="0.2" stroke="none" stroke-width="0"/>
<polygon points="342.0,480.0 331.2,484.6 335.6,495.6 324.6,491.2 320.0,502.0 315.4,491.2 304.4,495.6 308.8,484.6 298.0,480.0 308.8,475.4 304.4,464.4 315.4,468.8 320.0,458.0 324.6,468.8 335.6,464.4 331.2,475.4" fill="#fef3c7" opacity="0.2" stroke="none" stroke-width="0"/>
<polygon points="502.0,160.0 491.2,164.6 495.6,175.6 484.6,171.2 480.0,182.0 475.4,171.2 464.4,175.6 468.8,164.6 458.0,160.0 468.8,155.4 464.4,144.4 475.4,148.8 480.0,138.0 484.6,148.8 495.6,144.4 491.2,155.4" fill="#fef3c7" opacity="0.2" stroke="none" stroke-width="0"/>
<polygon points="502.0,320.0 491.2,324.6 495.6,335.6 484.6,331.2 480.0,342.0 475.4,331.2 464.4,335.6 468.8,324.6 458.0,320.0 468.8,315.4 464.4,304.4 475.4,308.8 480.0,298.0 484.6,308.8 495.6,304.4 491.2,315.4" fill="#fef3c7" opacity="0.2" stroke="none" stroke-width="0"/>
<polygon points="502.0,480.0 491.2,484.6 495.6,495.6 484.6,491.2 480.0,502.0 475.4,491.2 464.4,495.6 468.8,484.6 458.0,480.0 468.8,475.4 464.4,464.4 475.4,468.8 480.0,458.0 484.6,468.8 495.6,464.4 491.2,475.4" fill="#fef3c7" opacity="0.2" stroke="none" stroke-width="0"/>
<polygon points="662.0,160.0 651.2,164.6 655.6,175.6 644.6,171.2 640.0,182.0 635.4,171.2 624.4,175.6 628.8,164.6 618.0,160.0 628.8,155.4 624.4,144.4 635.4,148.8 640.0,138.0 644.6,148.8 655.6,144.4 651.2,155.4" fill="#fef3c7" opacity="0.2" stroke="none" stroke-width="0"/>
<polygon points="662.0,320.0 651.2,324.6 655.6,335.6 644.6,331.2 640.0,342.0 635.4,331.2 624.4,335.6 628.8,324.6 618.0,320.0 628.8,315.4 624.4,304.4 635.4,308.8 640.0,298.0 644.6,308.8 655.6,304.4 651.2,315.4" fill="#fef3c7" opacity="0.2" stroke="none" stroke-width="0"/>
<polygon points="662.0,480.0 651.2,484.6 655.6,495.6 644.6,491.2 640.0,502.0 635.4,491.2 624.4,495.6 628.8,484.6 618.0,480.0 628.8,475.4 624.4,464.4 635.4,468.8 640.0,458.0 644.6,468.8 655.6,464.4 651.2,475.4" fill="#fef3c7" opacity="0.2" stroke="none" stroke-width="0"/>
<polygon points="822.0,160.0 811.2,164.6 815.6,175.6 804.6,171.2 800.0,182.0 795.4,171.2 784.4,175.6 788.8,164.6 778.0,160.0 788.8,155.4 784.4,144.4 795.4,148.8 800.0,138.0 804.6,148.8 815.6,144.4 811.2,155.4" fill="#fef3c7" opacity="0.2" stroke="none" stroke-width="0"/>
<polygon points="822.0,320.0 811.2,324.6 815.6,335.6 804.6,331.2 800.0,342.0 795.4,331.2 784.4,335.6 788.8,324.6 778.0,320.0 788.8,315.4 784.4,304.4 795.4,308.8 800.0,298.0 804.6,308.8 815.6,304.4 811.2,315.4" fill="#fef3c7" opacity="0.2" stroke="none" stroke-width="0"/>
<polygon points="822.0,480.0 811.2,484.6 815.6,495.6 804.6,491.2 800.0,502.0 795.4,491.2 784.4,495.6 788.8,484.6 778.0,480.0 788.8,475.4 784.4,464.4 795.4,468.8 800.0,458.0 804.6,468.8 815.6,464.4 811.2,475.4" fill="#fef3c7" opacity="0.2" stroke="none" stroke-width="0"/>
<polygon points="982.0,160.0 971.2,164.6 975.6,175.6 964.6,171.2 960.0,182.0 955.4,171.2 944.4,175.6 948.8,164.6 938.0,160.0 948.8,155.4 944.4,144.4 955.4,148.8 960.0,138.0 964.6,148.8 975.6,144.4 971.2,155.4" fill="#fef3c7" opacity="0.2" stroke="none" stroke-width="0"/>
<polygon points="982.0,320.0 971.2,324.6 975.6,335.6 964.6,331.2 960.0,342.0 955.4,331.2 944.4,335.6 948.8,324.6 938.0,320.0 948.8,315.4 944.4,304.4 955.4,308.8 960.0,298.0 964.6,308.8 975.6,304.4 971.2,315.4" fill="#fef3c7" opacity="0.2" stroke="none" stroke-width="0"/>
<polygon points="982.0,480.0 971.2,484.6 975.6,495.6 964.6,491.2 960.0,502.0 955.4,491.2 944.4,495.6 948.8,484.6 938.0,480.0 948.8,475.4 944.4,464.4 955.4,468.8 960.0,458.0 964.6,468.8 975.6,464.4 971.2,475.4" fill="#fef3c7" opacity="0.2" stroke="none" stroke-width="0"/>
<polygon points="1142.0,160.0 1131.2,164.6 1135.6,175.6 1124.6,171.2 1120.0,182.0 1115.4,171.2 1104.4,175.6 1108.8,164.6 1098.0,160.0 1108.8,155.4 1104.4,144.4 1115.4,148.8 1120.0,138.0 1124.6,148.8 1135.6,144.4 1131.2,155.4" fill="#fef3c7" opacity="0.2" stroke="none" stroke-width="0"/>
<polygon points="1142.0,320.0 1131.2,324.6 1135.6,335.6 1124.6,331.2 1120.0,342.0 1115.4,331.2 1104.4,335.6 1108.8,324.6 1098.0,320.0 1108.8,315.4 1104.4,304.4 1115.4,308.8 1120.0,298.0 1124.6,308.8 1135.6,304.4 1131.2,315.4" fill="#fef3c7" opacity="0.2" stroke="none" stroke-width="0"/>
<polygon points="1142.0,480.0 1131.2,484.6 1135.6,495.6 1124.6,491.2 1120.0,502.0 1115.4,491.2 1104.4,495.6 1108.8,484.6 1098.0,480.0 1108.8,475.4 1104.4,464.4 1115.4,468.8 1120.0,458.0 1124.6,468.8 1135.6,464.4 1131.2,475.4" fill="#fef3c7" opacity="0.2" stroke="none" stroke-width="0"/>
<polygon points="1302.0,160.0 1291.2,164.6 1295.6,175.6 1284.6,171.2 1280.0,182.0 1275.4,171.2 1264.4,175.6 1268.8,164.6 1258.0,160.0 1268.8,155.4 1264.4,144.4 1275.4,148.8 1280.0,138.0 1284.6,148.8 1295.6,144.4 1291.2,155.4" fill="#fef3c7" opacity="0.2" stroke="none" stroke-width="0"/>
<polygon points="1302.0,320.0 1291.2,324.6 1295.6,335.6 1284.6,331.2 1280.0,342.0 1275.4,331.2 1264.4,335.6 1268.8,324.6 1258.0,320.0 1268.8,315.4 1264.4,304.4 1275.4,308.8 1280.0,298.0 1284.6,308.8 1295.6,304.4 1291.2,315.4" fill="#fef3c7" opacity="0.2" stroke="none" stroke-width="0"/>
<polygon points="1302.0,480.0 1291.2,484.6 1295.6,495.6 1284.6,491.2 1280.0,502.0 1275.4,491.2 1264.4,495.6 1268.8,484.6 1258.0,480.0 1268.8,475.4 1264.4,464.4 1275.4,468.8 1280.0,458.0 1284.6,468.8 1295.6,464.4 1291.2,475.4" fill="#fef3c7" opacity="0.2" stroke="none" stroke-width="0"/>
<polygon points="1462.0,160.0 1451.2,164.6 1455.6,175.6 1444.6,171.2 1440.0,182.0 1435.4,171.2 1424.4,175.6 1428.8,164.6 1418.0,160.0 1428.8,155.4 1424.4,144.4 1435.4,148.8 1440.0,138.0 1444.6,148.8 1455.6,144.4 1451.2,155.4" fill="#fef3c7" opacity="0.2" stroke="none" stroke-width="0"/>
<polygon points="1462.0,320.0 1451.2,324.6 1455.6,335.6 1444.6,331.2 1440.0,342.0 1435.4,331.2 1424.4,335.6 1428.8,324.6 1418.0,320.0 1428.8,315.4 1424.4,304.4 1435.4,308.8 1440.0,298.0 1444.6,308.8 1455.6,304.4 1451.2,315.4" fill="#fef3c7" opacity="0.2" stroke="none" stroke-width="0"/>
<polygon points="1462.0,480.0 1451.2,484.6 1455.6,495.6 1444.6,491.2 1440.0,502.0 1435.4,491.2 1424.4,495.6 1428.8,484.6 1418.0,480.0 1428.8,475.4 1424.4,464.4 1435.4,468.8 1440.0,458.0 1444.6,468.8 1455.6,464.4 1451.2,475.4" fill="#fef3c7" opacity="0.2" stroke="none" stroke-width="0"/><circle cx="750.0" cy="220.0" r="90" fill="none" stroke="#fbbf24" stroke-width="14"/><text x="750.0" y="262.0" font-family="Georgia,serif" font-size="120" font-weight="700" fill="#fbbf24" text-anchor="middle">?</text><text x="750.0" y="460" font-family="Georgia,serif" font-size="34" font-weight="700" fill="#ffffff" text-anchor="middle">KUIS &amp; EVALUASI</text>
</svg>