<?xml version="1.0" encoding="UTF-8"?>
<svg xmlns="http://www.w3.org/2000/svg" viewBox="0 0 1500 500" width="1500" height="500">
<defs>
    <linearGradient id="g10" x1="0" y1="0" x2="1" y2="1">
      <stop offset="0" stop-color="#fef3c7"/>
      <stop offset="1" stop-color="#fde68a"/>
    </linearGradient>
  </defs>
  <rect width="1500" height="500" fill="url(#g10)"/><rect x="50" y="180" width="70" height="140" fill="#065f46" opacity="0.85" rx="4"/><rect x="60" y="200" width="50" height="100" fill="#fde68a" opacity="0.6"/><rect x="150" y="180" width="70" height="140" fill="#065f46" opacity="0.85" rx="4"/><rect x="160" y="200" width="50" height="100" fill="#fde68a" opacity="0.6"/><rect x="250" y="180" width="70" height="140" fill="#065f46" opacity="0.85" rx="4"/><rect x="260" y="200" width="50" height="100" fill="#fde68a" opacity="0.6"/><rect x="350" y="180" width="70" height="140" fill="#065f46" opacity="0.85" rx="4"/><rect x="360" y="200" width="50" height="100" fill="#fde68a" opacity="0.6"/><rect x="450" y="180" width="70" height="140" fill="#065f46" opacity="0.85" rx="4"/><rect x="460" y="200" width="50" height="100" fill="#fde68a" opacity="0.6"/><rect x="550" y="180" width="70" height="140" fill="#065f46" opacity="0.85" rx="4"/><rect x="560" y="200" width="50" height="100" fill="#fde68a" opacity="0.6"/><rect x="650" y="180" width="70" height="140" fill="#065f46" opacity="0.85" rx="4"/><rect x="660" y="200" width="50" height="100" fill="#fde68a" opacity="0.6"/><rect x="750" y="180" width="70" height="140" fill="#065f46" opacity="0.85" rx="4"/><rect x="760" y="200" width="50" height="100" fill="#fde68a" opacity="0.6"/><rect x="850" y="180" width="70" height="140" fill="#065f46" opacity="0.85" rx="4"/><rect x="860" y="200" width="50" height="100" fill="#fde68a" opacity="0.6"/><rect x="950" y="180" width="70" height="140" fill="#065f46" opacity="0.85" rx="4"/><rect x="960" y="200" width="50" height="100" fill="#fde68a" opacity="0.6"/><rect x="1050" y="180" width="70" height="140" fill="#065f46" opacity="0.85" rx="4"/><rect x="1060" y="200" width="50" height="100" fill="#fde68a" opacity="0.6"/><rect x="1150" y="180" width="70" height="140" fill="#065f46" opacity="0.85" rx="4"/><rect x="1160" y="200" width="50" height="100" fill="#fde68a" opacity="0.6"/><rect x="1250" y="180" width="70" height="140" fill="#065f46" opacity="0.85" rx="4"/><rect x="1260" y="200" width="50" height="100" fill="#fde68a" opacity="0.6"/><rect x="1350" y="180" width="70" height="140" fill="#065f46" opacity="0.85" rx="4"/><rect x="1360" y="200" width="50" height="100" fill="#fde68a" opacity="0.6"/><rect x="1450" y="180" width="70" height="140" fill="#065f46" opacity="0.85" rx="4"/><rect x="1460" y="200" width="50" height="100" fill="#fde68a" opacity="0.6"/><text x="750.0" y="90" font-family="Georgia,serif" font-size="38" font-weight="700" fill="#78350f" text-anchor="middle">REKAMAN KELAS</text><text x="750.0" y="425" font-family="Georgia,serif" font-size="18" fill="#78350f" text-anchor="middle" opacity="0.7">Class Recordings Library</text>
</svg>