<?xml version="1.0" encoding="UTF-8"?>
<svg xmlns="http://www.w3.org/2000/svg" viewBox="0 0 1500 500" width="1500" height="500">
<defs>
    <linearGradient id="g11" x1="0" y1="0" x2="1" y2="1">
      <stop offset="0" stop-color="#dbeafe"/>
      <stop offset="1" stop-color="#bfdbfe"/>
    </linearGradient>
  </defs>
  <rect width="1500" height="500" fill="url(#g11)"/><circle cx="926" cy="443" r="55" fill="#0f766e" opacity="0.12"/>
<circle cx="953" cy="231" r="52" fill="#0f766e" opacity="0.12"/>
<circle cx="1202" cy="97" r="31" fill="#0f766e" opacity="0.12"/>
<circle cx="1048" cy="243" r="60" fill="#0f766e" opacity="0.12"/>
<circle cx="1257" cy="406" r="31" fill="#0f766e" opacity="0.12"/>
<circle cx="192" cy="228" r="39" fill="#0f766e" opacity="0.12"/>
<circle cx="290" cy="46" r="54" fill="#0f766e" opacity="0.12"/>
<circle cx="1420" cy="324" r="22" fill="#0f766e" opacity="0.12"/>
<circle cx="1219" cy="202" r="48" fill="#0f766e" opacity="0.12"/>
<circle cx="1339" cy="378" r="59" fill="#0f766e" opacity="0.12"/>
<circle cx="1331" cy="80" r="59" fill="#0f766e" opacity="0.12"/>
<circle cx="30" cy="425" r="53" fill="#0f766e" opacity="0.12"/>
<circle cx="129" cy="30" r="22" fill="#0f766e" opacity="0.12"/>
<circle cx="389" cy="450" r="35" fill="#0f766e" opacity="0.12"/>
<circle cx="1228" cy="15" r="69" fill="#0f766e" opacity="0.12"/>
<circle cx="950" cy="167" r="48" fill="#0f766e" opacity="0.12"/>
<circle cx="1210" cy="431" r="32" fill="#0f766e" opacity="0.12"/>
<circle cx="1063" cy="119" r="60" fill="#0f766e" opacity="0.12"/>
<circle cx="602" cy="255" r="20" fill="#0f766e" opacity="0.12"/>
<circle cx="1356" cy="43" r="49" fill="#0f766e" opacity="0.12"/>
<circle cx="1341" cy="142" r="46" fill="#0f766e" opacity="0.12"/>
<circle cx="1128" cy="477" r="73" fill="#0f766e" opacity="0.12"/>
<circle cx="170" cy="362" r="36" fill="#0f766e" opacity="0.12"/>
<circle cx="645" cy="388" r="34" fill="#0f766e" opacity="0.12"/>
<circle cx="1050" cy="147" r="21" fill="#0f766e" opacity="0.12"/><path d="M550.0 210.0 L550.0 350.0 L750.0 330.0 L950.0 350.0 L950.0 210.0 L750.0 190.0 Z" fill="#065f46" opacity="0.8"/><line x1="750.0" y1="190.0" x2="750.0" y2="330.0" stroke="#0f766e" stroke-width="4"/><line x1="580.0" y1="230.0" x2="720.0" y2="230.0" stroke="#dbeafe" stroke-width="2" opacity="0.5"/><line x1="780.0" y1="230.0" x2="920.0" y2="230.0" stroke="#dbeafe" stroke-width="2" opacity="0.5"/><line x1="580.0" y1="252.0" x2="720.0" y2="252.0" stroke="#dbeafe" stroke-width="2" opacity="0.5"/><line x1="780.0" y1="252.0" x2="920.0" y2="252.0" stroke="#dbeafe" stroke-width="2" opacity="0.5"/><line x1="580.0" y1="274.0" x2="720.0" y2="274.0" stroke="#dbeafe" stroke-width="2" opacity="0.5"/><line x1="780.0" y1="274.0" x2="920.0" y2="274.0" stroke="#dbeafe" stroke-width="2" opacity="0.5"/><line x1="580.0" y1="296.0" x2="720.0" y2="296.0" stroke="#dbeafe" stroke-width="2" opacity="0.5"/><line x1="780.0" y1="296.0" x2="920.0" y2="296.0" stroke="#dbeafe" stroke-width="2" opacity="0.5"/><text x="750.0" y="80" font-family="Georgia,serif" font-size="36" font-weight="700" fill="#1e3a8a" text-anchor="middle">KAMUS KOSAKATA</text>
</svg>