<?xml version="1.0" encoding="UTF-8"?>
<svg xmlns="http://www.w3.org/2000/svg" viewBox="0 0 1500 500" width="1500" height="500">
<defs>
    <linearGradient id="g15" x1="0" y1="0" x2="1" y2="1">
      <stop offset="0" stop-color="#f7fee7"/>
      <stop offset="1" stop-color="#ecfccb"/>
    </linearGradient>
  </defs>
  <rect width="1500" height="500" fill="url(#g15)"/><path d="M200 150 Q200 100 260 100 L560 100 Q620 100 620 150 L620 260 Q620 300 570 300 L280 300 L220 350 L230 300 Q200 300 200 260 Z" fill="#065f46" opacity="0.85"/><path d="M880 200 Q880 150 940 150 L1280 150 Q1340 150 1340 200 L1340 340 Q1340 380 1280 380 L1180 380 L1230 430 L1130 380 L940 380 Q880 380 880 340 Z" fill="#f59e0b" opacity="0.85"/><circle cx="340" cy="200" r="10" fill="#f7fee7" opacity="0.7"/><circle cx="400" cy="200" r="10" fill="#f7fee7" opacity="0.7"/><circle cx="460" cy="200" r="10" fill="#f7fee7" opacity="0.7"/><circle cx="1050" cy="265" r="10" fill="#f7fee7" opacity="0.7"/><circle cx="1110" cy="265" r="10" fill="#f7fee7" opacity="0.7"/><circle cx="1170" cy="265" r="10" fill="#f7fee7" opacity="0.7"/><text x="750.0" y="470" font-family="Georgia,serif" font-size="34" font-weight="700" fill="#3f6212" text-anchor="middle">HUBUNGI ADMIN</text>
</svg>