<?xml version="1.0" encoding="UTF-8"?>
<svg xmlns="http://www.w3.org/2000/svg" viewBox="0 0 1200 1800" width="1200" height="1800">
<defs>
  <linearGradient id="hdrGradB" x1="0" y1="0" x2="0" y2="1">
    <stop offset="0" stop-color="#0f1e3d"/>
    <stop offset="1" stop-color="#1a2c52"/>
  </linearGradient>
</defs>
<rect width="1200" height="1800" fill="#f7f2e5"/>
<rect x="0" y="0" width="1200" height="280" fill="url(#hdrGradB)"/><rect x="0" y="280" width="1200" height="6" fill="#f5b301"/><text x="60" y="100" font-family="'Segoe UI', 'Helvetica Neue', Arial, sans-serif" font-size="40" font-weight="700" fill="#ffffff" text-anchor="start">SATU MODUL</text><text x="60" y="170" font-family="'Segoe UI', 'Helvetica Neue', Arial, sans-serif" font-size="62" font-weight="700" fill="#f5b301" text-anchor="start">SATU SIKLUS BELAJAR</text><text x="60" y="225" font-family="'Segoe UI', 'Helvetica Neue', Arial, sans-serif" font-size="20" font-weight="400" fill="#c9d5e6" text-anchor="start">5 tahap yang membentuk pemahaman utuh — dari niat sampai lanjut modul</text><circle cx="1040" cy="150" r="90" fill="none" stroke="#f5b301" stroke-width="4" opacity="0.8"/><g transform="translate(990.0,100.0)" stroke="#f5b301" stroke-width="3" fill="none" stroke-linecap="round">
        <path d="M15.0 50.0 A 35.0 35.0 0 1 1 85.0 50.0"/>
        <path d="M75.0 30.0 L85.0 50.0 L72.0 40.0"/></g><rect x="44" y="324" width="1120" height="190" rx="14" fill="#000000" opacity="0.06"/><rect x="40" y="320" width="1120" height="190" rx="14" fill="#ffffff" stroke="#c9c0a8" stroke-width="2"/><rect x="40" y="320" width="12" height="190" rx="6" fill="#1f8a5f"/><circle cx="110" cy="375" r="32" fill="#1f8a5f"/>
    <text x="110" y="386.2" font-family="'Segoe UI',Arial,sans-serif" font-size="35.2" font-weight="800" fill="#ffffff" text-anchor="middle">1</text><text x="170" y="355" font-family="'Segoe UI', 'Helvetica Neue', Arial, sans-serif" font-size="32" font-weight="700" fill="#1f8a5f" text-anchor="start">BEFORE</text><text x="170" y="388" font-family="'Segoe UI', 'Helvetica Neue', Arial, sans-serif" font-size="16" font-weight="400" fill="#5c6b7a" text-anchor="start">Persiapan sebelum masuk materi</text><g transform="translate(117.0,414.0)">
        <circle cx="13.0" cy="13.0" r="10.4" fill="none" stroke="#1f8a5f" stroke-width="3"/>
        <circle cx="13.0" cy="13.0" r="5.72" fill="none" stroke="#1f8a5f" stroke-width="3"/>
        <circle cx="13.0" cy="13.0" r="2.08" fill="#1f8a5f"/></g><text x="170" y="433" font-family="'Segoe UI', 'Helvetica Neue', Arial, sans-serif" font-size="16" font-weight="400" fill="#1a1a2e" text-anchor="start">Baca tujuan pembelajaran</text><g transform="translate(117.0,440.0)" stroke="#1f8a5f" stroke-width="2.5" fill="#1f8a5f" fill-opacity="0.15" stroke-linejoin="round">
        <path d="M5.2 3.9 L20.8 3.9 L20.8 7.8 L13.0 13.0 L20.8 18.2 L20.8 22.099999999999998 L5.2 22.099999999999998 L5.2 18.2 L13.0 13.0 L5.2 7.8 Z"/></g><text x="170" y="459" font-family="'Segoe UI', 'Helvetica Neue', Arial, sans-serif" font-size="16" font-weight="400" fill="#1a1a2e" text-anchor="start">Blokir waktu belajar tanpa gangguan</text><g transform="translate(117.0,466.0)" stroke="#1f8a5f" stroke-width="2.5" stroke-linejoin="round" fill="#1f8a5f" fill-opacity="0.15">
        <path d="M3.9 22.099999999999998 L14.3 3.9 L22.099999999999998 11.700000000000001 L11.700000000000001 23.400000000000002 L3.9 22.099999999999998 Z"/>
        <path d="M19.5 5.2 L22.099999999999998 3.9 L24.7 6.5 L22.099999999999998 9.1 Z" fill="#f5b301"/></g><text x="170" y="485" font-family="'Segoe UI', 'Helvetica Neue', Arial, sans-serif" font-size="16" font-weight="400" fill="#1a1a2e" text-anchor="start">Siapkan buku catatan atau file kosong</text><rect x="44" y="529" width="1120" height="190" rx="14" fill="#000000" opacity="0.06"/><rect x="40" y="525" width="1120" height="190" rx="14" fill="#ffffff" stroke="#c9c0a8" stroke-width="2"/><rect x="40" y="525" width="12" height="190" rx="6" fill="#1f7a8c"/><circle cx="110" cy="580" r="32" fill="#1f7a8c"/>
    <text x="110" y="591.2" font-family="'Segoe UI',Arial,sans-serif" font-size="35.2" font-weight="800" fill="#ffffff" text-anchor="middle">2</text><text x="170" y="560" font-family="'Segoe UI', 'Helvetica Neue', Arial, sans-serif" font-size="32" font-weight="700" fill="#1f7a8c" text-anchor="start">LEARN</text><text x="170" y="593" font-family="'Segoe UI', 'Helvetica Neue', Arial, sans-serif" font-size="16" font-weight="400" fill="#5c6b7a" text-anchor="start">Menyerap materi utama</text><g transform="translate(117.0,619.0)" stroke="#1f7a8c" stroke-width="2.5" fill="none" stroke-linecap="round" stroke-linejoin="round">
        <path d="M2.6 5.2 L13.0 3.9 L23.400000000000002 5.2 L23.400000000000002 22.099999999999998 L13.0 20.8 L2.6 22.099999999999998 Z" fill="#1f7a8c" fill-opacity="0.15"/>
        <line x1="13.0" y1="3.9" x2="13.0" y2="20.8"/></g><text x="170" y="638" font-family="'Segoe UI', 'Helvetica Neue', Arial, sans-serif" font-size="16" font-weight="400" fill="#1a1a2e" text-anchor="start">Baca ringkasan dan materi modul</text><g transform="translate(117.0,645.0)" stroke="#1f7a8c" stroke-width="2.5" fill="#1f7a8c" fill-opacity="0.15" stroke-linejoin="round">
        <rect x="2.6" y="6.5" width="15.6" height="13.0" rx="6"/>
        <path d="M18.2 9.1 L23.400000000000002 13.0 L18.2 16.900000000000002 Z"/>
        <path d="M7.280000000000001 9.1 L7.280000000000001 16.900000000000002 L13.0 13.0 Z" fill="#1f7a8c" fill-opacity="1"/></g><text x="170" y="664" font-family="'Segoe UI', 'Helvetica Neue', Arial, sans-serif" font-size="16" font-weight="400" fill="#1a1a2e" text-anchor="start">Tonton video/file pendukung</text><g transform="translate(117.0,671.0)" stroke="#1f7a8c" stroke-width="2.5" stroke-linejoin="round" fill="#1f7a8c" fill-opacity="0.15">
        <path d="M3.9 22.099999999999998 L14.3 3.9 L22.099999999999998 11.700000000000001 L11.700000000000001 23.400000000000002 L3.9 22.099999999999998 Z"/>
        <path d="M19.5 5.2 L22.099999999999998 3.9 L24.7 6.5 L22.099999999999998 9.1 Z" fill="#f5b301"/></g><text x="170" y="690" font-family="'Segoe UI', 'Helvetica Neue', Arial, sans-serif" font-size="16" font-weight="400" fill="#1a1a2e" text-anchor="start">Tandai konsep penting</text><rect x="44" y="734" width="1120" height="190" rx="14" fill="#000000" opacity="0.06"/><rect x="40" y="730" width="1120" height="190" rx="14" fill="#ffffff" stroke="#c9c0a8" stroke-width="2"/><rect x="40" y="730" width="12" height="190" rx="6" fill="#e26a2c"/><circle cx="110" cy="785" r="32" fill="#e26a2c"/>
    <text x="110" y="796.2" font-family="'Segoe UI',Arial,sans-serif" font-size="35.2" font-weight="800" fill="#ffffff" text-anchor="middle">3</text><text x="170" y="765" font-family="'Segoe UI', 'Helvetica Neue', Arial, sans-serif" font-size="32" font-weight="700" fill="#e26a2c" text-anchor="start">PRACTICE</text><text x="170" y="798" font-family="'Segoe UI', 'Helvetica Neue', Arial, sans-serif" font-size="16" font-weight="400" fill="#5c6b7a" text-anchor="start">Menerapkan yang sudah dipelajari</text><g transform="translate(117.0,824.0)">
        <circle cx="13.0" cy="13.0" r="10.92" fill="#e26a2c"/>
        <path d="M7.280000000000001 13.0 L11.44 17.16 L18.72 9.36" fill="none" stroke="#ffffff" stroke-width="4" stroke-linecap="round" stroke-linejoin="round"/></g><text x="170" y="843" font-family="'Segoe UI', 'Helvetica Neue', Arial, sans-serif" font-size="16" font-weight="400" fill="#1a1a2e" text-anchor="start">Kerjakan latihan modul</text><g transform="translate(117.0,850.0)">
        <circle cx="13.0" cy="13.0" r="10.4" fill="none" stroke="#e26a2c" stroke-width="3"/>
        <circle cx="13.0" cy="13.0" r="5.72" fill="none" stroke="#e26a2c" stroke-width="3"/>
        <circle cx="13.0" cy="13.0" r="2.08" fill="#e26a2c"/></g><text x="170" y="869" font-family="'Segoe UI', 'Helvetica Neue', Arial, sans-serif" font-size="16" font-weight="400" fill="#1a1a2e" text-anchor="start">Terapkan ke situasi kerja/hidup nyata</text><g transform="translate(117.0,876.0)" stroke="#e26a2c" stroke-width="2.5" stroke-linejoin="round" fill="#e26a2c" fill-opacity="0.15">
        <path d="M3.9 22.099999999999998 L14.3 3.9 L22.099999999999998 11.700000000000001 L11.700000000000001 23.400000000000002 L3.9 22.099999999999998 Z"/>
        <path d="M19.5 5.2 L22.099999999999998 3.9 L24.7 6.5 L22.099999999999998 9.1 Z" fill="#f5b301"/></g><text x="170" y="895" font-family="'Segoe UI', 'Helvetica Neue', Arial, sans-serif" font-size="16" font-weight="400" fill="#1a1a2e" text-anchor="start">Tulis output/hasil tugas</text><rect x="44" y="939" width="1120" height="190" rx="14" fill="#000000" opacity="0.06"/><rect x="40" y="935" width="1120" height="190" rx="14" fill="#ffffff" stroke="#c9c0a8" stroke-width="2"/><rect x="40" y="935" width="12" height="190" rx="6" fill="#7c3aed"/><circle cx="110" cy="990" r="32" fill="#7c3aed"/>
    <text x="110" y="1001.2" font-family="'Segoe UI',Arial,sans-serif" font-size="35.2" font-weight="800" fill="#ffffff" text-anchor="middle">4</text><text x="170" y="970" font-family="'Segoe UI', 'Helvetica Neue', Arial, sans-serif" font-size="32" font-weight="700" fill="#7c3aed" text-anchor="start">REVIEW</text><text x="170" y="1003" font-family="'Segoe UI', 'Helvetica Neue', Arial, sans-serif" font-size="16" font-weight="400" fill="#5c6b7a" text-anchor="start">Konsolidasi pemahaman</text><g transform="translate(117.0,1029.0)">
        <circle cx="13.0" cy="13.0" r="10.92" fill="#7c3aed"/>
        <path d="M7.280000000000001 13.0 L11.44 17.16 L18.72 9.36" fill="none" stroke="#ffffff" stroke-width="4" stroke-linecap="round" stroke-linejoin="round"/></g><text x="170" y="1048" font-family="'Segoe UI', 'Helvetica Neue', Arial, sans-serif" font-size="16" font-weight="400" fill="#1a1a2e" text-anchor="start">Cek dan centang checklist</text><g transform="translate(117.0,1055.0)" stroke="#7c3aed" stroke-width="3" fill="none" stroke-linecap="round">
        <path d="M3.9 13.0 A 9.1 9.1 0 1 1 22.099999999999998 13.0"/>
        <path d="M19.5 7.8 L22.099999999999998 13.0 L18.72 10.4"/></g><text x="170" y="1074" font-family="'Segoe UI', 'Helvetica Neue', Arial, sans-serif" font-size="16" font-weight="400" fill="#1a1a2e" text-anchor="start">Tulis refleksi 3 pertanyaan</text><g transform="translate(117.0,1081.0)" stroke="#7c3aed" stroke-width="2.5" fill="none" stroke-linecap="round" stroke-linejoin="round">
        <path d="M2.6 5.2 L13.0 3.9 L23.400000000000002 5.2 L23.400000000000002 22.099999999999998 L13.0 20.8 L2.6 22.099999999999998 Z" fill="#7c3aed" fill-opacity="0.15"/>
        <line x1="13.0" y1="3.9" x2="13.0" y2="20.8"/></g><text x="170" y="1100" font-family="'Segoe UI', 'Helvetica Neue', Arial, sans-serif" font-size="16" font-weight="400" fill="#1a1a2e" text-anchor="start">Buka ulang bagian yang belum jelas</text><rect x="44" y="1144" width="1120" height="190" rx="14" fill="#000000" opacity="0.06"/><rect x="40" y="1140" width="1120" height="190" rx="14" fill="#ffffff" stroke="#c9c0a8" stroke-width="2"/><rect x="40" y="1140" width="12" height="190" rx="6" fill="#0f1e3d"/><circle cx="110" cy="1195" r="32" fill="#0f1e3d"/>
    <text x="110" y="1206.2" font-family="'Segoe UI',Arial,sans-serif" font-size="35.2" font-weight="800" fill="#ffffff" text-anchor="middle">5</text><text x="170" y="1175" font-family="'Segoe UI', 'Helvetica Neue', Arial, sans-serif" font-size="32" font-weight="700" fill="#0f1e3d" text-anchor="start">CONTINUE</text><text x="170" y="1208" font-family="'Segoe UI', 'Helvetica Neue', Arial, sans-serif" font-size="16" font-weight="400" fill="#5c6b7a" text-anchor="start">Lanjut ke modul berikutnya</text><g transform="translate(117.0,1234.0)">
        <circle cx="13.0" cy="13.0" r="10.92" fill="none" stroke="#0f1e3d" stroke-width="3"/>
        <text x="13.0" y="16.900000000000002" font-family="Arial,sans-serif" font-size="14.3" font-weight="800" fill="#0f1e3d" text-anchor="middle">?</text></g><text x="170" y="1253" font-family="'Segoe UI', 'Helvetica Neue', Arial, sans-serif" font-size="16" font-weight="400" fill="#1a1a2e" text-anchor="start">Kerjakan kuis modul</text><path d="M122.2 1273 L137.8 1273 M133.9 1269.1 L137.8 1273 L133.9 1276.9" stroke="#0f1e3d" stroke-width="3" fill="none" stroke-linecap="round" stroke-linejoin="round"/><text x="170" y="1279" font-family="'Segoe UI', 'Helvetica Neue', Arial, sans-serif" font-size="16" font-weight="400" fill="#1a1a2e" text-anchor="start">Klik tombol Lanjut ke modul berikutnya</text><g transform="translate(117.0,1286.0)">
        <circle cx="13.0" cy="13.0" r="10.4" fill="none" stroke="#0f1e3d" stroke-width="3"/>
        <circle cx="13.0" cy="13.0" r="5.72" fill="none" stroke="#0f1e3d" stroke-width="3"/>
        <circle cx="13.0" cy="13.0" r="2.08" fill="#0f1e3d"/></g><text x="170" y="1305" font-family="'Segoe UI', 'Helvetica Neue', Arial, sans-serif" font-size="16" font-weight="400" fill="#1a1a2e" text-anchor="start">Set target tanggal selesai berikutnya</text><rect x="44" y="1359" width="1120" height="260" rx="14" fill="#000000" opacity="0.06"/><rect x="40" y="1355" width="1120" height="260" rx="14" fill="#fff8e6" stroke="#f5b301" stroke-width="2"/><text x="80" y="1400" font-family="'Segoe UI', 'Helvetica Neue', Arial, sans-serif" font-size="24" font-weight="700" fill="#0f1e3d" text-anchor="start">PANDUAN CEPAT — TANYA JAWAB</text><text x="80" y="1430" font-family="'Segoe UI', 'Helvetica Neue', Arial, sans-serif" font-size="15" font-weight="700" fill="#0f1e3d" text-anchor="start">•  Apa yang harus dihasilkan setelah modul?</text><text x="100" y="1452" font-family="'Segoe UI', 'Helvetica Neue', Arial, sans-serif" font-size="15" font-weight="400" fill="#1a1a2e" text-anchor="start">Minimal: catatan pribadi + output latihan + checklist tercentang jujur.</text><text x="80" y="1476" font-family="'Segoe UI', 'Helvetica Neue', Arial, sans-serif" font-size="15" font-weight="700" fill="#0f1e3d" text-anchor="start">•  Apa yang perlu dilakukan jika belum paham?</text><text x="100" y="1498" font-family="'Segoe UI', 'Helvetica Neue', Arial, sans-serif" font-size="15" font-weight="400" fill="#1a1a2e" text-anchor="start">Ulangi bagian LEARN. Buka Rekaman Kelas. Diskusi di kolom refleksi.</text><text x="80" y="1522" font-family="'Segoe UI', 'Helvetica Neue', Arial, sans-serif" font-size="15" font-weight="700" fill="#0f1e3d" text-anchor="start">•  Kapan menggunakan Rekaman Kelas?</text><text x="100" y="1544" font-family="'Segoe UI', 'Helvetica Neue', Arial, sans-serif" font-size="15" font-weight="400" fill="#1a1a2e" text-anchor="start">Saat ada konsep yang perlu dilihat berulang, atau untuk mengulang sesi live.</text><text x="80" y="1568" font-family="'Segoe UI', 'Helvetica Neue', Arial, sans-serif" font-size="15" font-weight="700" fill="#0f1e3d" text-anchor="start">•  Kapan menghubungi admin?</text><text x="100" y="1590" font-family="'Segoe UI', 'Helvetica Neue', Arial, sans-serif" font-size="15" font-weight="400" fill="#1a1a2e" text-anchor="start">Setelah cek FAQ — untuk kendala teknis, izin, atau pertanyaan di luar materi.</text><rect x="0" y="1760" width="1200" height="40" fill="#0f1e3d"/><text x="600.0" y="1785" font-family="'Segoe UI', 'Helvetica Neue', Arial, sans-serif" font-size="15" font-weight="400" fill="#c9d5e6" text-anchor="middle">Draft prototype — E-Course Learning Workspace</text>
</svg>