<?xml version="1.0" encoding="UTF-8"?>
<svg xmlns="http://www.w3.org/2000/svg" viewBox="0 0 1200 2000" width="1200" height="2000"><defs><linearGradient id="hg" x1="0" y1="0" x2="0" y2="1"><stop offset="0" stop-color="#0f1e3d"/><stop offset="1" stop-color="#1a2c52"/></linearGradient></defs>
<rect width="1200" height="2000" fill="#f7f2e5"/>
<rect x="0" y="0" width="1200" height="260" fill="url(#hg)"/><rect x="0" y="260" width="1200" height="6" fill="#f5b301"/><text x="60" y="90" font-family="'Segoe UI','Helvetica Neue',Arial,sans-serif" font-size="38" font-weight="700" fill="#ffffff" text-anchor="start">CARA MENGGUNAKAN</text><text x="60" y="155" font-family="'Segoe UI','Helvetica Neue',Arial,sans-serif" font-size="54" font-weight="700" fill="#f5b301" text-anchor="start">WORKSPACE E-COURSE</text><text x="60" y="205" font-family="'Segoe UI','Helvetica Neue',Arial,sans-serif" font-size="20" font-weight="400" fill="#c9d5e6" text-anchor="start">Panduan praktis untuk belajar, berlatih, dan memantau progres</text><rect x="980" y="40" width="180" height="150" rx="10" fill="none" stroke="#f5b301" stroke-width="3" opacity="0.85"/><text x="1070.0" y="95" font-family="'Segoe UI','Helvetica Neue',Arial,sans-serif" font-size="18" font-weight="700" fill="#f5b301" text-anchor="middle">E-COURSE</text><text x="1070.0" y="125" font-family="'Segoe UI','Helvetica Neue',Arial,sans-serif" font-size="18" font-weight="700" fill="#f5b301" text-anchor="middle">WORKSPACE</text><text x="1070.0" y="165" font-family="'Segoe UI','Helvetica Neue',Arial,sans-serif" font-size="12" font-weight="400" fill="#c9d5e6" text-anchor="middle">GUIDE 2026</text><rect x="44" y="304" width="1120" height="130" rx="12" fill="#000000" opacity="0.06"/><rect x="40" y="300" width="1120" height="130" rx="12" fill="#ffffff" stroke="#c9c0a8" stroke-width="2"/><circle cx="90" cy="365" r="28" fill="#0f1e3d"/><text x="90" y="374.8" font-family="Arial,sans-serif" font-size="30.800000000000004" font-weight="800" fill="#ffffff" text-anchor="middle">1</text><text x="140" y="345" font-family="'Segoe UI','Helvetica Neue',Arial,sans-serif" font-size="26" font-weight="700" fill="#0f1e3d" text-anchor="start">FUNGSI UTAMA WORKSPACE</text><g transform="translate(1050.0,335.0)" stroke="#1f8a5f" stroke-width="2.5" fill="#1f8a5f" fill-opacity="0.15" stroke-linejoin="round"><path d="M30.0 9.0 L54.0 30.0 L51.0 30.0 L51.0 51.0 L33.0 51.0 L33.0 36.0 L27.0 36.0 L27.0 51.0 L9.0 51.0 L9.0 30.0 L6.0 30.0 Z"/></g><text x="140" y="380.0" font-family="'Segoe UI','Helvetica Neue',Arial,sans-serif" font-size="17" font-weight="400" fill="#1a1a2e" text-anchor="start">Satu tempat terpusat untuk modul, rekaman, kuis, kamus,</text>
<text x="140" y="402.95" font-family="'Segoe UI','Helvetica Neue',Arial,sans-serif" font-size="17" font-weight="400" fill="#1a1a2e" text-anchor="start">file pendukung, dan pengumuman. Gunakan Dashboard</text>
<text x="140" y="425.9" font-family="'Segoe UI','Helvetica Neue',Arial,sans-serif" font-size="17" font-weight="400" fill="#1a1a2e" text-anchor="start">sebagai titik awal setiap kali masuk workspace.</text><rect x="44" y="454" width="1120" height="190" rx="12" fill="#000000" opacity="0.06"/><rect x="40" y="450" width="1120" height="190" rx="12" fill="#ffffff" stroke="#c9c0a8" stroke-width="2"/><circle cx="90" cy="515" r="28" fill="#0f1e3d"/><text x="90" y="524.8" font-family="Arial,sans-serif" font-size="30.800000000000004" font-weight="800" fill="#ffffff" text-anchor="middle">2</text><text x="140" y="495" font-family="'Segoe UI','Helvetica Neue',Arial,sans-serif" font-size="26" font-weight="700" fill="#0f1e3d" text-anchor="start">ALUR UTAMA PEMBELAJARAN</text><text x="140" y="530" font-family="'Segoe UI','Helvetica Neue',Arial,sans-serif" font-size="17" font-weight="400" fill="#5c6b7a" text-anchor="start">Ikuti urutan berikut sekali saja untuk memahami sistem:</text><rect x="40.0" y="562" width="80" height="56" rx="8" fill="#1f8a5f"/><text x="80.0" y="593.75" font-family="'Segoe UI','Helvetica Neue',Arial,sans-serif" font-size="12" font-weight="700" fill="#ffffff" text-anchor="middle">Dashboard</text><path d="M153.4 590 L166.6 590 M163.3 586.7 L166.6 590 L163.3 593.3" stroke="#0f1e3d" stroke-width="3" fill="none" stroke-linecap="round" stroke-linejoin="round"/><rect x="200.0" y="562" width="80" height="56" rx="8" fill="#1f7a8c"/><text x="240.0" y="586.25" font-family="'Segoe UI','Helvetica Neue',Arial,sans-serif" font-size="12" font-weight="700" fill="#ffffff" text-anchor="middle">Selamat</text><text x="240.0" y="601.25" font-family="'Segoe UI','Helvetica Neue',Arial,sans-serif" font-size="12" font-weight="700" fill="#ffffff" text-anchor="middle">Datang</text><path d="M313.4 590 L326.6 590 M323.3 586.7 L326.6 590 L323.3 593.3" stroke="#0f1e3d" stroke-width="3" fill="none" stroke-linecap="round" stroke-linejoin="round"/><rect x="360.0" y="562" width="80" height="56" rx="8" fill="#2b6cb0"/><text x="400.0" y="593.75" font-family="'Segoe UI','Helvetica Neue',Arial,sans-serif" font-size="12" font-weight="700" fill="#ffffff" text-anchor="middle">Roadmap</text><path d="M473.4 590 L486.6 590 M483.3 586.7 L486.6 590 L483.3 593.3" stroke="#0f1e3d" stroke-width="3" fill="none" stroke-linecap="round" stroke-linejoin="round"/><rect x="520.0" y="562" width="80" height="56" rx="8" fill="#7c3aed"/><text x="560.0" y="586.25" font-family="'Segoe UI','Helvetica Neue',Arial,sans-serif" font-size="12" font-weight="700" fill="#ffffff" text-anchor="middle">Modul</text><text x="560.0" y="601.25" font-family="'Segoe UI','Helvetica Neue',Arial,sans-serif" font-size="12" font-weight="700" fill="#ffffff" text-anchor="middle">1-4</text><path d="M633.4 590 L646.6 590 M643.3 586.7 L646.6 590 L643.3 593.3" stroke="#0f1e3d" stroke-width="3" fill="none" stroke-linecap="round" stroke-linejoin="round"/><rect x="680.0" y="562" width="80" height="56" rx="8" fill="#e26a2c"/><text x="720.0" y="593.75" font-family="'Segoe UI','Helvetica Neue',Arial,sans-serif" font-size="12" font-weight="700" fill="#ffffff" text-anchor="middle">Latihan</text><path d="M793.4 590 L806.6 590 M803.3 586.7 L806.6 590 L803.3 593.3" stroke="#0f1e3d" stroke-width="3" fill="none" stroke-linecap="round" stroke-linejoin="round"/><rect x="840.0" y="562" width="80" height="56" rx="8" fill="#d99a00"/><text x="880.0" y="593.75" font-family="'Segoe UI','Helvetica Neue',Arial,sans-serif" font-size="12" font-weight="700" fill="#ffffff" text-anchor="middle">Checklist</text><path d="M953.4 590 L966.6 590 M963.3 586.7 L966.6 590 L963.3 593.3" stroke="#0f1e3d" stroke-width="3" fill="none" stroke-linecap="round" stroke-linejoin="round"/><rect x="1000.0" y="562" width="80" height="56" rx="8" fill="#14603f"/><text x="1040.0" y="593.75" font-family="'Segoe UI','Helvetica Neue',Arial,sans-serif" font-size="12" font-weight="700" fill="#ffffff" text-anchor="middle">Kuis</text><rect x="44" y="664" width="1120" height="430" rx="12" fill="#000000" opacity="0.06"/><rect x="40" y="660" width="1120" height="430" rx="12" fill="#ffffff" stroke="#c9c0a8" stroke-width="2"/><circle cx="90" cy="725" r="28" fill="#0f1e3d"/><text x="90" y="734.8" font-family="Arial,sans-serif" font-size="30.800000000000004" font-weight="800" fill="#ffffff" text-anchor="middle">3</text><text x="140" y="705" font-family="'Segoe UI','Helvetica Neue',Arial,sans-serif" font-size="26" font-weight="700" fill="#0f1e3d" text-anchor="start">SATU MODUL = SATU SIKLUS BELAJAR</text><text x="140" y="740" font-family="'Segoe UI','Helvetica Neue',Arial,sans-serif" font-size="17" font-weight="400" fill="#5c6b7a" text-anchor="start">Struktur baku yang diulang di setiap modul (1 sampai 4):</text><rect x="80.0" y="780" width="505.0" height="75" rx="10" fill="#f7f2e5" stroke="#1f8a5f" stroke-width="2"/><g transform="translate(96.0,798.0)"><circle cx="19.0" cy="19.0" r="15.200000000000001" fill="none" stroke="#1f8a5f" stroke-width="3"/><circle cx="19.0" cy="19.0" r="8.36" fill="none" stroke="#1f8a5f" stroke-width="3"/><circle cx="19.0" cy="19.0" r="3.04" fill="#1f8a5f"/></g><text x="150.0" y="812" font-family="'Segoe UI','Helvetica Neue',Arial,sans-serif" font-size="18" font-weight="700" fill="#1a1a2e" text-anchor="start">Pahami Tujuan</text><text x="150.0" y="835" font-family="'Segoe UI','Helvetica Neue',Arial,sans-serif" font-size="13" font-weight="400" fill="#5c6b7a" text-anchor="start">Baca 3 poin di awal modul</text><rect x="615.0" y="780" width="505.0" height="75" rx="10" fill="#f7f2e5" stroke="#1f7a8c" stroke-width="2"/><g transform="translate(631.0,798.0)" stroke="#1f7a8c" stroke-width="2.5" fill="#1f7a8c" fill-opacity="0.15" stroke-linejoin="round"><path d="M3.8000000000000003 7.6000000000000005 L19.0 5.7 L34.2 7.6000000000000005 L34.2 32.3 L19.0 30.400000000000002 L3.8000000000000003 32.3 Z"/><line x1="19.0" y1="5.7" x2="19.0" y2="30.400000000000002"/></g><text x="685.0" y="812" font-family="'Segoe UI','Helvetica Neue',Arial,sans-serif" font-size="18" font-weight="700" fill="#1a1a2e" text-anchor="start">Pelajari Materi</text><text x="685.0" y="835" font-family="'Segoe UI','Helvetica Neue',Arial,sans-serif" font-size="13" font-weight="400" fill="#5c6b7a" text-anchor="start">Bagian utama modul</text><rect x="80.0" y="867" width="505.0" height="75" rx="10" fill="#f7f2e5" stroke="#2b6cb0" stroke-width="2"/><g transform="translate(96.0,885.0)" stroke="#2b6cb0" stroke-width="2.5" fill="#2b6cb0" fill-opacity="0.15" stroke-linejoin="round"><rect x="3.8000000000000003" y="9.5" width="22.8" height="19.0" rx="6"/><path d="M26.599999999999998 13.299999999999999 L34.2 19.0 L26.599999999999998 24.7 Z"/><path d="M10.64 13.299999999999999 L10.64 24.7 L19.0 19.0 Z" fill="#2b6cb0" fill-opacity="1"/></g><text x="150.0" y="899" font-family="'Segoe UI','Helvetica Neue',Arial,sans-serif" font-size="18" font-weight="700" fill="#1a1a2e" text-anchor="start">Tonton / Buka File</text><text x="150.0" y="922" font-family="'Segoe UI','Helvetica Neue',Arial,sans-serif" font-size="13" font-weight="400" fill="#5c6b7a" text-anchor="start">Video atau bahan pendukung</text><rect x="615.0" y="867" width="505.0" height="75" rx="10" fill="#f7f2e5" stroke="#e26a2c" stroke-width="2"/><g transform="translate(631.0,885.0)" stroke="#e26a2c" stroke-width="2.5" stroke-linejoin="round" fill="#e26a2c" fill-opacity="0.15"><path d="M5.7 32.3 L20.900000000000002 5.7 L32.3 17.1 L17.1 34.2 L5.7 32.3 Z"/><path d="M28.5 7.6000000000000005 L32.3 5.7 L36.1 9.5 L32.3 13.299999999999999 Z" fill="#f5b301"/></g><text x="685.0" y="899" font-family="'Segoe UI','Helvetica Neue',Arial,sans-serif" font-size="18" font-weight="700" fill="#1a1a2e" text-anchor="start">Kerjakan Latihan</text><text x="685.0" y="922" font-family="'Segoe UI','Helvetica Neue',Arial,sans-serif" font-size="13" font-weight="400" fill="#5c6b7a" text-anchor="start">Praktik terapan konsep</text><rect x="80.0" y="954" width="505.0" height="75" rx="10" fill="#f7f2e5" stroke="#7c3aed" stroke-width="2"/><g transform="translate(96.0,972.0)" stroke="#7c3aed" stroke-width="2.5" fill="#7c3aed" fill-opacity="0.15" stroke-linejoin="round"><path d="M3.8000000000000003 7.6000000000000005 L34.2 7.6000000000000005 L34.2 26.599999999999998 L20.900000000000002 26.599999999999998 L15.200000000000001 34.2 L15.200000000000001 26.599999999999998 L3.8000000000000003 26.599999999999998 Z"/></g><text x="150.0" y="986" font-family="'Segoe UI','Helvetica Neue',Arial,sans-serif" font-size="18" font-weight="700" fill="#1a1a2e" text-anchor="start">Tulis Catatan</text><text x="150.0" y="1009" font-family="'Segoe UI','Helvetica Neue',Arial,sans-serif" font-size="13" font-weight="400" fill="#5c6b7a" text-anchor="start">Poin kunci untuk diingat</text><rect x="615.0" y="954" width="505.0" height="75" rx="10" fill="#f7f2e5" stroke="#d99a00" stroke-width="2"/><g transform="translate(631.0,972.0)" stroke="#d99a00" stroke-width="4" fill="none" stroke-linecap="round"><path d="M5.7 19.0 A 13.299999999999999 13.299999999999999 0 1 1 32.3 19.0"/><path d="M28.5 11.4 L32.3 19.0 L27.36 15.200000000000001"/></g><text x="685.0" y="986" font-family="'Segoe UI','Helvetica Neue',Arial,sans-serif" font-size="18" font-weight="700" fill="#1a1a2e" text-anchor="start">Refleksi</text><text x="685.0" y="1009" font-family="'Segoe UI','Helvetica Neue',Arial,sans-serif" font-size="13" font-weight="400" fill="#5c6b7a" text-anchor="start">3 pertanyaan reflektif</text><rect x="80" y="1041" width="1040" height="55" rx="10" fill="#14603f"/><path d="M112.2 1068 L127.8 1068 M123.9 1064.1 L127.8 1068 L123.9 1071.9" stroke="#ffffff" stroke-width="3" fill="none" stroke-linecap="round" stroke-linejoin="round"/><text x="160" y="1076" font-family="'Segoe UI','Helvetica Neue',Arial,sans-serif" font-size="18" font-weight="700" fill="#ffffff" text-anchor="start">Lanjut ke Modul Berikutnya  —  klik tombol di akhir modul untuk lanjut</text><rect x="44" y="1114" width="550.0" height="300" rx="12" fill="#000000" opacity="0.06"/><rect x="40" y="1110" width="550.0" height="300" rx="12" fill="#ffffff" stroke="#c9c0a8" stroke-width="2"/><circle cx="90" cy="1175" r="28" fill="#0f1e3d"/><text x="90" y="1184.8" font-family="Arial,sans-serif" font-size="30.800000000000004" font-weight="800" fill="#ffffff" text-anchor="middle">4</text><text x="140" y="1155" font-family="'Segoe UI','Helvetica Neue',Arial,sans-serif" font-size="24" font-weight="700" fill="#0f1e3d" text-anchor="start">RESOURCE CENTER</text><text x="140" y="1185" font-family="'Segoe UI','Helvetica Neue',Arial,sans-serif" font-size="14" font-weight="400" fill="#5c6b7a" text-anchor="start">Materi pendukung, gunakan sesuai kebutuhan:</text><g transform="translate(74.0,1222.0)" stroke="#1f7a8c" stroke-width="2.5" fill="#1f7a8c" fill-opacity="0.15" stroke-linejoin="round"><rect x="3.2" y="8.0" width="19.2" height="16.0" rx="6"/><path d="M22.4 11.2 L28.8 16.0 L22.4 20.8 Z"/><path d="M8.96 11.2 L8.96 20.8 L16.0 16.0 Z" fill="#1f7a8c" fill-opacity="1"/></g><text x="130" y="1230" font-family="'Segoe UI','Helvetica Neue',Arial,sans-serif" font-size="17" font-weight="700" fill="#1a1a2e" text-anchor="start">Rekaman Kelas</text><text x="130" y="1252" font-family="'Segoe UI','Helvetica Neue',Arial,sans-serif" font-size="13" font-weight="400" fill="#5c6b7a" text-anchor="start">Untuk mengulang sesi live</text><g transform="translate(74.0,1268.0)" stroke="#1f8a5f" stroke-width="2.5" fill="#1f8a5f" fill-opacity="0.15" stroke-linejoin="round"><path d="M3.2 6.4 L16.0 4.8 L28.8 6.4 L28.8 27.2 L16.0 25.6 L3.2 27.2 Z"/><line x1="16.0" y1="4.8" x2="16.0" y2="25.6"/></g><text x="130" y="1276" font-family="'Segoe UI','Helvetica Neue',Arial,sans-serif" font-size="17" font-weight="700" fill="#1a1a2e" text-anchor="start">Kamus Kosakata</text><text x="130" y="1298" font-family="'Segoe UI','Helvetica Neue',Arial,sans-serif" font-size="13" font-weight="400" fill="#5c6b7a" text-anchor="start">Cari istilah yang belum dipahami</text><g transform="translate(74.0,1314.0)" stroke="#2b6cb0" stroke-width="2.5" stroke-linecap="round" stroke-linejoin="round" fill="none"><path d="M16.0 4.8 L16.0 19.2"/><path d="M9.6 14.4 L16.0 20.8 L22.4 14.4"/><path d="M4.8 24.0 L4.8 27.2 L27.2 27.2 L27.2 24.0"/></g><text x="130" y="1322" font-family="'Segoe UI','Helvetica Neue',Arial,sans-serif" font-size="17" font-weight="700" fill="#1a1a2e" text-anchor="start">Download Materi</text><text x="130" y="1344" font-family="'Segoe UI','Helvetica Neue',Arial,sans-serif" font-size="13" font-weight="400" fill="#5c6b7a" text-anchor="start">Unduh PDF/PPT/DOCX per modul</text><g transform="translate(74.0,1360.0)" stroke="#e26a2c" stroke-width="2.5" fill="#e26a2c" fill-opacity="0.15" stroke-linejoin="round"><path d="M4.8 12.8 L17.6 6.4 L17.6 25.6 L4.8 19.2 Z"/><path d="M17.6 11.2 L27.2 8.0 L27.2 24.0 L17.6 20.8 Z" fill-opacity="0.3"/></g><text x="130" y="1368" font-family="'Segoe UI','Helvetica Neue',Arial,sans-serif" font-size="17" font-weight="700" fill="#1a1a2e" text-anchor="start">Pengumuman</text><text x="130" y="1390" font-family="'Segoe UI','Helvetica Neue',Arial,sans-serif" font-size="13" font-weight="400" fill="#5c6b7a" text-anchor="start">Cek info resmi dari admin</text><rect x="614.0" y="1114" width="550.0" height="300" rx="12" fill="#000000" opacity="0.06"/><rect x="610.0" y="1110" width="550.0" height="300" rx="12" fill="#ffffff" stroke="#c9c0a8" stroke-width="2"/><circle cx="660.0" cy="1175" r="28" fill="#0f1e3d"/><text x="660.0" y="1184.8" font-family="Arial,sans-serif" font-size="30.800000000000004" font-weight="800" fill="#ffffff" text-anchor="middle">5</text><text x="710.0" y="1155" font-family="'Segoe UI','Helvetica Neue',Arial,sans-serif" font-size="24" font-weight="700" fill="#0f1e3d" text-anchor="start">SISTEM PROGRESS</text><text x="710.0" y="1185" font-family="'Segoe UI','Helvetica Neue',Arial,sans-serif" font-size="14" font-weight="400" fill="#5c6b7a" text-anchor="start">Tandai status setiap modul dengan jujur:</text><g transform="translate(641.0,1231.0)"><circle cx="19.0" cy="19.0" r="15.959999999999999" fill="#1f8a5f"/><path d="M10.64 19.0 L16.72 25.080000000000002 L27.36 13.68" fill="none" stroke="#ffffff" stroke-width="4" stroke-linecap="round" stroke-linejoin="round"/></g><text x="715.0" y="1245" font-family="'Segoe UI','Helvetica Neue',Arial,sans-serif" font-size="20" font-weight="700" fill="#1a1a2e" text-anchor="start">Selesai</text><text x="715.0" y="1270" font-family="'Segoe UI','Helvetica Neue',Arial,sans-serif" font-size="14" font-weight="400" fill="#5c6b7a" text-anchor="start">Modul tuntas dipelajari</text><g transform="translate(641.0,1291.0)" stroke="#d99a00" stroke-width="2.5" fill="#d99a00" fill-opacity="0.15" stroke-linejoin="round"><path d="M7.6000000000000005 5.7 L30.400000000000002 5.7 L30.400000000000002 11.4 L19.0 19.0 L30.400000000000002 26.599999999999998 L30.400000000000002 32.3 L7.6000000000000005 32.3 L7.6000000000000005 26.599999999999998 L19.0 19.0 L7.6000000000000005 11.4 Z"/></g><text x="715.0" y="1305" font-family="'Segoe UI','Helvetica Neue',Arial,sans-serif" font-size="20" font-weight="700" fill="#1a1a2e" text-anchor="start">Sedang Belajar</text><text x="715.0" y="1330" font-family="'Segoe UI','Helvetica Neue',Arial,sans-serif" font-size="14" font-weight="400" fill="#5c6b7a" text-anchor="start">Sedang dalam proses</text><g transform="translate(641.0,1351.0)"><circle cx="19.0" cy="19.0" r="15.959999999999999" fill="#d64545"/><path d="M11.4 11.4 L26.599999999999998 26.599999999999998 M26.599999999999998 11.4 L11.4 26.599999999999998" stroke="#ffffff" stroke-width="4" stroke-linecap="round"/></g><text x="715.0" y="1365" font-family="'Segoe UI','Helvetica Neue',Arial,sans-serif" font-size="20" font-weight="700" fill="#1a1a2e" text-anchor="start">Belum Mulai</text><text x="715.0" y="1390" font-family="'Segoe UI','Helvetica Neue',Arial,sans-serif" font-size="14" font-weight="400" fill="#5c6b7a" text-anchor="start">Belum disentuh</text><rect x="44" y="1434" width="1120" height="130" rx="14" fill="#000000" opacity="0.06"/><rect x="40" y="1430" width="1120" height="130" rx="14" fill="#fff8e6" stroke="#f5b301" stroke-width="2"/><g transform="translate(65.0,1470.0)"><circle cx="25.0" cy="25.0" r="21.0" fill="none" stroke="#d99a00" stroke-width="3"/><text x="25.0" y="34.0" font-family="Arial,sans-serif" font-size="27.500000000000004" font-weight="800" fill="#d99a00" text-anchor="middle">?</text></g><text x="155" y="1475" font-family="'Segoe UI','Helvetica Neue',Arial,sans-serif" font-size="24" font-weight="700" fill="#0f1e3d" text-anchor="start">6.   JIKA MENGALAMI KENDALA</text><text x="155" y="1510.0" font-family="'Segoe UI','Helvetica Neue',Arial,sans-serif" font-size="15" font-weight="400" fill="#1a1a2e" text-anchor="start">Langkah pertama: buka halaman FAQ — sebagian besar pertanyaan sudah</text>
<text x="155" y="1530.25" font-family="'Segoe UI','Helvetica Neue',Arial,sans-serif" font-size="15" font-weight="400" fill="#1a1a2e" text-anchor="start">terjawab di sana. Jika belum, hubungi admin lewat halaman Hubungi Admin</text>
<text x="155" y="1550.5" font-family="'Segoe UI','Helvetica Neue',Arial,sans-serif" font-size="15" font-weight="400" fill="#1a1a2e" text-anchor="start">yang berisi kontak dan format pesan.</text><rect x="44" y="1584" width="1120" height="250" rx="14" fill="#000000" opacity="0.06"/><rect x="40" y="1580" width="1120" height="250" rx="14" fill="#0f1e3d" stroke="#0f1e3d" stroke-width="0"/><text x="80" y="1630" font-family="'Segoe UI','Helvetica Neue',Arial,sans-serif" font-size="26" font-weight="700" fill="#f5b301" text-anchor="start">7.   TAKEAWAY PRAKTIS</text><circle cx="90" cy="1670" r="7" fill="#f5b301"/><text x="115" y="1675" font-family="'Segoe UI','Helvetica Neue',Arial,sans-serif" font-size="16" font-weight="400" fill="#ffffff" text-anchor="start">Belajar satu modul dalam satu waktu — jangan lompat.</text><circle cx="90" cy="1700" r="7" fill="#f5b301"/><text x="115" y="1705" font-family="'Segoe UI','Helvetica Neue',Arial,sans-serif" font-size="16" font-weight="400" fill="#ffffff" text-anchor="start">Tandai checklist hanya setelah benar-benar selesai.</text><circle cx="90" cy="1730" r="7" fill="#f5b301"/><text x="115" y="1735" font-family="'Segoe UI','Helvetica Neue',Arial,sans-serif" font-size="16" font-weight="400" fill="#ffffff" text-anchor="start">Catat hal yang belum dipahami — bahas ulang di refleksi.</text><circle cx="90" cy="1760" r="7" fill="#f5b301"/><text x="115" y="1765" font-family="'Segoe UI','Helvetica Neue',Arial,sans-serif" font-size="16" font-weight="400" fill="#ffffff" text-anchor="start">Gunakan Rekaman Kelas untuk review, bukan pengganti belajar.</text><circle cx="90" cy="1790" r="7" fill="#f5b301"/><text x="115" y="1795" font-family="'Segoe UI','Helvetica Neue',Arial,sans-serif" font-size="16" font-weight="400" fill="#ffffff" text-anchor="start">Jangan lanjut modul jika tujuan modul sebelumnya belum jelas.</text><rect x="0" y="1960" width="1200" height="40" fill="#0f1e3d"/><text x="600.0" y="1985" font-family="'Segoe UI','Helvetica Neue',Arial,sans-serif" font-size="13" font-weight="400" fill="#c9d5e6" text-anchor="middle">Draft prototype — E-Course Learning Workspace</text>
</svg>